<svg width="16" height="16" viewBox="0 0 16 16" fill="none" xmlns="http://www.w3.org/2000/svg">
<path d="M10.6666 5.66895C11.5553 6.85429 11.5553 9.15029 10.6666 10.3356M12.6666 3.33562C15.3253 5.87429 15.3413 10.147 12.6666 12.669M1.33325 9.97495V6.02895C1.33325 5.64629 1.63192 5.33562 1.99992 5.33562H4.39059C4.47881 5.33531 4.56605 5.31713 4.64706 5.28218C4.72806 5.24724 4.80115 5.19625 4.86192 5.13229L6.86192 2.87362C7.28192 2.43629 7.99992 2.74629 7.99992 3.36429V12.6403C7.99992 13.263 7.27325 13.5703 6.85592 13.1243L4.86259 10.8783C4.80165 10.8125 4.72782 10.76 4.6457 10.724C4.56358 10.6879 4.47492 10.6692 4.38525 10.669H1.99992C1.63192 10.669 1.33325 10.3583 1.33325 9.97495Z" stroke="#CA8B06" stroke-width="2" stroke-linecap="round" stroke-linejoin="round"/>
</svg>
