<svg width="24" height="24" viewBox="0 0 24 24" fill="none" xmlns="http://www.w3.org/2000/svg">
<g clip-path="url(#clip0_229_6860)">
<path d="M12 2.00195C6.48 2.00195 2 6.48195 2 12.002C2 17.522 6.48 22.002 12 22.002H17V20.002H12C7.66 20.002 4 16.342 4 12.002C4 7.66195 7.66 4.00195 12 4.00195C16.34 4.00195 20 7.66195 20 12.002V13.432C20 14.222 19.29 15.002 18.5 15.002C17.71 15.002 17 14.222 17 13.432V12.002C17 9.24195 14.76 7.00195 12 7.00195C9.24 7.00195 7 9.24195 7 12.002C7 14.762 9.24 17.002 12 17.002C13.38 17.002 14.64 16.442 15.54 15.532C16.19 16.422 17.31 17.002 18.5 17.002C20.47 17.002 22 15.402 22 13.432V12.002C22 6.48195 17.52 2.00195 12 2.00195ZM12 15.002C10.34 15.002 9 13.662 9 12.002C9 10.342 10.34 9.00195 12 9.00195C13.66 9.00195 15 10.342 15 12.002C15 13.662 13.66 15.002 12 15.002Z" fill="#333C4A"/>
</g>
<defs>
<clipPath id="clip0_229_6860">
<rect width="24" height="24" fill="white" transform="translate(0 0.00195312)"/>
</clipPath>
</defs>
</svg>
