<svg width="24" height="24" viewBox="0 0 24 24" fill="none" xmlns="http://www.w3.org/2000/svg">
<path d="M11.9999 2.00195C10.6866 2.00195 9.38629 2.26061 8.17303 2.76316C6.95978 3.2657 5.85738 4.0023 4.9288 4.93089C3.05343 6.80625 1.99987 9.34979 1.99987 12.002C1.99112 14.3111 2.79066 16.5505 4.25987 18.332L2.25987 20.332C2.12111 20.4726 2.02711 20.6511 1.98974 20.8451C1.95236 21.0391 1.97329 21.2398 2.04987 21.422C2.13292 21.6019 2.26757 21.7531 2.43671 21.8563C2.60586 21.9596 2.80187 22.0103 2.99987 22.002H11.9999C14.652 22.002 17.1956 20.9484 19.0709 19.073C20.9463 17.1977 21.9999 14.6541 21.9999 12.002C21.9999 9.34979 20.9463 6.80625 19.0709 4.93089C17.1956 3.05552 14.652 2.00195 11.9999 2.00195ZM11.9999 20.002H5.40987L6.33987 19.072C6.52612 18.8846 6.63066 18.6311 6.63066 18.367C6.63066 18.1028 6.52612 17.8493 6.33987 17.662C5.03045 16.354 4.21504 14.6325 4.03256 12.7907C3.85007 10.949 4.31181 9.10096 5.33909 7.56148C6.36638 6.02199 7.89566 4.88631 9.66638 4.34793C11.4371 3.80954 13.3397 3.90176 15.0501 4.60887C16.7604 5.31598 18.1727 6.59423 19.0463 8.22584C19.9199 9.85746 20.2007 11.7415 19.841 13.557C19.4813 15.3724 18.5032 17.007 17.0734 18.1822C15.6436 19.3574 13.8506 20.0005 11.9999 20.002Z" fill="#333C4A"/>
</svg>
