<svg width="17" height="17" viewBox="0 0 17 17" fill="none" xmlns="http://www.w3.org/2000/svg">
<g clip-path="url(#clip0_411_3632)">
<path d="M6.07386 1.24073C4.47522 1.79531 3.09654 2.84793 2.14035 4.24398C1.18416 5.64002 0.700854 7.3059 0.761418 8.99693C0.821982 10.688 1.42323 12.315 2.47684 13.6391C3.53045 14.9631 4.98089 15.9144 6.61511 16.3532C7.94002 16.6951 9.32813 16.7101 10.6601 16.397C11.8668 16.1259 12.9823 15.5462 13.8976 14.7145C14.8502 13.8224 15.5417 12.6876 15.8976 11.432C16.2845 10.0666 16.3534 8.63064 16.0989 7.23448H8.65886V10.3207H12.9676C12.8815 10.813 12.697 11.2828 12.4251 11.702C12.1531 12.1213 11.7994 12.4814 11.3851 12.7607C10.859 13.1088 10.2659 13.3429 9.64387 13.4482C9.02005 13.5642 8.38019 13.5642 7.75636 13.4482C7.1241 13.3175 6.52599 13.0565 6.00011 12.682C5.1553 12.084 4.52096 11.2344 4.18762 10.2545C3.84863 9.25622 3.84863 8.17398 4.18762 7.17572C4.4249 6.476 4.81716 5.83889 5.33511 5.31198C5.92785 4.69791 6.67828 4.25897 7.50406 4.04332C8.32984 3.82767 9.19906 3.84364 10.0164 4.08948C10.6548 4.28546 11.2387 4.6279 11.7214 5.08948C12.2072 4.60614 12.6922 4.12156 13.1764 3.63573C13.4264 3.37448 13.6989 3.12573 13.9451 2.85823C13.2083 2.17257 12.3435 1.63905 11.4001 1.28823C9.68225 0.664462 7.80259 0.647699 6.07386 1.24073Z" fill="white"/>
<path d="M6.07372 1.2406C7.8023 0.647171 9.68196 0.663493 11.4 1.28685C12.3435 1.64005 13.208 2.17615 13.9437 2.86435C13.6937 3.13185 13.43 3.38185 13.175 3.64185C12.69 4.12602 12.2054 4.60852 11.7212 5.08935C11.2385 4.62777 10.6547 4.28534 10.0162 4.08935C9.19919 3.84265 8.32999 3.82576 7.50399 4.04053C6.678 4.2553 5.92711 4.69343 5.33372 5.30685C4.81576 5.83377 4.4235 6.47087 4.18622 7.1706L1.59497 5.16435C2.52248 3.32505 4.12841 1.91813 6.07372 1.2406Z" fill="#E33629"/>
<path d="M0.907438 7.15181C1.04671 6.46155 1.27794 5.79309 1.59494 5.16431L4.18619 7.17556C3.84721 8.17381 3.84721 9.25605 4.18619 10.2543C3.32285 10.921 2.4591 11.591 1.59494 12.2643C0.801376 10.6847 0.559354 8.88493 0.907438 7.15181Z" fill="#F8BD00"/>
<path d="M8.65876 7.23315H16.0988C16.3533 8.62932 16.2844 10.0652 15.8975 11.4307C15.5416 12.6863 14.8501 13.8211 13.8975 14.7132C13.0613 14.0607 12.2213 13.4132 11.385 12.7607C11.7996 12.481 12.1535 12.1205 12.4254 11.7008C12.6973 11.2811 12.8817 10.8108 12.9675 10.3182H8.65876C8.65751 9.29065 8.65876 8.2619 8.65876 7.23315Z" fill="#587DBD"/>
<path d="M1.59375 12.2644C2.45792 11.5977 3.32167 10.9277 4.185 10.2544C4.51901 11.2346 5.15426 12.0843 6 12.6819C6.52751 13.0547 7.12691 13.3136 7.76 13.4419C8.38382 13.5579 9.02368 13.5579 9.6475 13.4419C10.2695 13.3366 10.8626 13.1024 11.3888 12.7544C12.225 13.4069 13.065 14.0544 13.9012 14.7069C12.9861 15.5391 11.8705 16.1192 10.6637 16.3906C9.33176 16.7038 7.94365 16.6888 6.61875 16.3469C5.57088 16.0671 4.59209 15.5739 3.74375 14.8981C2.84583 14.1853 2.11244 13.2869 1.59375 12.2644Z" fill="#319F43"/>
</g>
<defs>
<clipPath id="clip0_411_3632">
<rect width="16" height="16" fill="white" transform="translate(0.5 0.714355)"/>
</clipPath>
</defs>
</svg>
