<svg width="30" height="31" viewBox="0 0 30 31" fill="none" xmlns="http://www.w3.org/2000/svg">
<path d="M18.75 22.8347C18.75 23.8293 18.3549 24.7831 17.6516 25.4864C16.9484 26.1896 15.9946 26.5847 15 26.5847C14.0054 26.5847 13.0516 26.1896 12.3483 25.4864C11.6451 24.7831 11.25 23.8293 11.25 22.8347C11.25 21.8402 11.6451 20.8863 12.3483 20.1831C13.0516 19.4798 14.0054 19.0847 15 19.0847C15.9946 19.0847 16.9484 19.4798 17.6516 20.1831C18.3549 20.8863 18.75 21.8402 18.75 22.8347Z" fill="url(#paint0_linear_411_3164)"/>
<path d="M15 4.08472C12.7622 4.08472 10.6161 4.97366 9.0338 6.556C7.45146 8.13834 6.56251 10.2845 6.56251 12.5222V17.0241L4.75501 21.5503C4.6984 21.6925 4.67744 21.8463 4.69396 21.9984C4.71048 22.1506 4.76398 22.2963 4.84979 22.423C4.93559 22.5497 5.0511 22.6534 5.18623 22.7252C5.32136 22.797 5.472 22.8346 5.62501 22.8347H24.375C24.528 22.8346 24.6787 22.797 24.8138 22.7252C24.9489 22.6534 25.0644 22.5497 25.1502 22.423C25.236 22.2963 25.2895 22.1506 25.3061 21.9984C25.3226 21.8463 25.3016 21.6925 25.245 21.5503L23.4375 17.0222V12.5222C23.4375 10.2845 22.5486 8.13834 20.9662 6.556C19.3839 4.97366 17.2378 4.08472 15 4.08472Z" fill="url(#paint1_linear_411_3164)"/>
<defs>
<linearGradient id="paint0_linear_411_3164" x1="15.0244" y1="21.8972" x2="15.0244" y2="26.5847" gradientUnits="userSpaceOnUse">
<stop offset="0.152" stop-color="#EB4824"/>
<stop offset="1" stop-color="#FFCD0F" stop-opacity="0.988"/>
</linearGradient>
<linearGradient id="paint1_linear_411_3164" x1="25.3425" y1="22.8272" x2="7.27313" y2="6.56909" gradientUnits="userSpaceOnUse">
<stop stop-color="#FF6F47"/>
<stop offset="1" stop-color="#FFCD0F"/>
</linearGradient>
</defs>
</svg>
