<svg width="30" height="31" viewBox="0 0 30 31" fill="none" xmlns="http://www.w3.org/2000/svg">
<path d="M10.693 6.10577C5.74773 5.49639 3.98429 7.98077 3.13491 9.12358C0.820227 12.5361 2.21148 16.2861 3.89616 18.0889C3.89616 18.0889 13.3593 27.3026 13.6227 27.5511C13.8862 27.7995 14.5096 28.6498 16.0105 28.408C17.3212 28.197 17.6952 26.6136 17.6952 26.6136C17.6952 26.6136 18.6627 27.403 20.054 26.6136C21.1377 25.9986 21.0937 24.7686 21.0937 24.7686C21.0937 24.7686 22.2543 25.3498 23.4965 24.2998C24.614 23.353 23.9212 21.6917 23.9212 21.6917C23.9212 21.6917 24.9243 21.8567 25.6349 21.0767C26.5959 20.022 26.2649 18.6889 25.6349 18.0889L18.3984 10.1783L17.8415 7.24858L10.693 6.10577Z" fill="#FFC83D"/>
<path d="M25.0377 21.5154L22.9508 19.3995C22.9075 19.3557 22.856 19.3208 22.7993 19.2969C22.7425 19.2729 22.6816 19.2604 22.62 19.26C22.5584 19.2596 22.4974 19.2714 22.4403 19.2946C22.3833 19.3178 22.3313 19.352 22.2875 19.3953C22.2437 19.4386 22.2088 19.49 22.1849 19.5468C22.1609 19.6035 22.1484 19.6645 22.148 19.726C22.1476 19.7876 22.1594 19.8487 22.1826 19.9058C22.2058 19.9628 22.24 20.0147 22.2833 20.0586L23.937 21.7348L23.9211 21.6917C23.9211 21.6917 24.4667 21.7817 25.0377 21.5154ZM22.4792 24.8501L20.3136 22.4473C20.2303 22.3549 20.1137 22.2994 19.9895 22.293C19.8653 22.2866 19.7436 22.3298 19.6513 22.4131C19.5589 22.4964 19.5034 22.613 19.497 22.7372C19.4906 22.8614 19.5337 22.9831 19.617 23.0754L21.1733 24.8014C21.3599 24.8726 21.8577 25.0179 22.4792 24.8501ZM19.2899 26.9136L17.5967 25.1201C17.5544 25.0754 17.5037 25.0394 17.4476 25.0142C17.3914 24.9891 17.3308 24.9752 17.2692 24.9735C17.2077 24.9717 17.1464 24.9821 17.0888 25.0041C17.0313 25.026 16.9787 25.0591 16.9339 25.1014C16.8892 25.1437 16.8532 25.1944 16.828 25.2506C16.8029 25.3067 16.789 25.3674 16.7873 25.4289C16.7855 25.4904 16.7959 25.5517 16.8179 25.6093C16.8398 25.6668 16.8729 25.7194 16.9152 25.7642L17.7627 26.6614C17.9492 26.7832 18.508 27.0832 19.2899 26.9136ZM17.2527 27.5726C16.5411 27.762 15.2211 27.8211 14.3117 26.8479L13.5842 27.5136L13.6227 27.5511C13.6502 27.5773 13.6814 27.6086 13.7164 27.6448C14.0239 27.9636 14.6633 28.6254 16.0105 28.4079C16.5936 28.3142 16.9911 27.9486 17.2527 27.5717" fill="#D67D00"/>
<path d="M5.97647 6.72178C4.39491 8.7524 1.95741 14.0108 6.26991 17.6202L4.91241 19.078L3.89616 18.089C2.21241 16.2871 0.820221 12.5371 3.13491 9.12365L3.17241 9.07209C3.6646 8.41021 4.45303 7.34803 5.93803 6.66553L5.97647 6.72178Z" fill="#F59F00"/>
<path d="M16.1719 22.5421C17.2997 23.8452 15.8906 25.5065 15.2344 26.204L5.3147 15.8821C7.16532 14.0052 8.38782 13.8168 9.2147 14.6315C10.0397 15.4462 9.65345 16.0227 9.65345 16.0227C9.65345 16.0227 10.7728 15.3871 11.9531 16.5505C13.1344 17.714 12.3188 18.6008 12.3188 18.6008C12.3188 18.6008 13.5375 18.3815 14.4 19.348C15.3656 20.4327 14.7506 21.6918 14.7506 21.6918C14.7506 21.6918 15.4913 21.7555 16.1719 22.5421Z" fill="#D67D00"/>
<path d="M11.6604 7.83461C14.6923 6.61867 19.2917 6.00367 21.4011 5.97461C22.8364 5.97461 24.6645 6.32148 26.6014 8.5968C29.6951 12.2287 27.3776 16.3743 25.5467 18.059V16.7409C25.5467 16.7409 18.5098 10.6134 18.2811 10.3977C17.8592 9.9993 16.1229 10.1202 15.9373 10.1784C15.3711 10.3546 14.3904 10.6471 13.1248 11.1159C12.0954 11.4974 11.2789 11.189 10.9423 10.3977C10.6048 9.60742 10.1539 8.43836 11.6604 7.83461Z" fill="#FFC83D"/>
<path d="M26.5405 16.9376C26.2457 17.3421 25.9129 17.7176 25.5468 18.0589C22.9593 15.8033 17.6924 11.1917 17.2705 10.7933C16.8486 10.3948 16.3574 10.4126 16.1718 10.4708C15.0695 10.8164 13.9754 11.1877 12.8905 11.5845C11.8611 11.9661 10.8252 11.1889 10.4886 10.3976C10.1793 9.67481 10.1549 8.63606 11.3043 8.00138L11.8968 7.74169L11.9436 7.72388C10.1127 9.10013 11.7299 10.782 13.2421 10.5889C13.7736 10.5204 14.6483 10.3395 15.4977 10.1201C15.8352 10.032 16.1661 9.87731 16.4783 9.732C17.0643 9.45731 17.5846 9.2145 17.9596 9.50419C19.3658 10.5964 23.5621 14.1617 26.5415 16.9376" fill="#D67D00"/>
<path d="M8.2687 16.1587C8.10299 15.944 7.89661 15.764 7.66135 15.629C7.42608 15.4941 7.16654 15.4068 6.89754 15.3721C6.62854 15.3375 6.35535 15.3562 6.09357 15.4271C5.83178 15.498 5.58654 15.6198 5.37182 15.7856L3.5737 17.3034C2.74589 17.9924 2.5312 19.2815 3.13589 20.1177C3.68339 20.8752 4.52339 21.1884 5.29495 20.969C4.95276 21.7518 4.98182 22.7531 5.63901 23.3034C6.25307 23.8162 7.01151 24.1677 7.77182 23.9306C7.6987 24.4321 7.84682 24.9815 8.36245 25.529C8.84995 26.0456 9.5587 26.3034 10.319 26.1318C10.2187 26.6681 10.3884 27.2643 11.0156 27.869C11.7834 28.6096 12.9656 28.6734 14.0765 27.6534L14.8003 26.8096C15.3815 26.0784 16.1859 24.8071 14.984 23.7271C14.5687 23.354 14.0915 23.1468 13.5956 23.1459C13.8646 22.4896 13.8599 21.6852 13.0799 20.9146C12.5924 20.4337 11.9953 20.2246 11.3362 20.3821C11.6924 19.6246 11.684 18.8512 10.9706 18.1462C10.3228 17.5059 9.52401 17.2021 8.49276 17.7805C8.67464 17.2218 8.63151 16.6293 8.26776 16.1577" fill="#FFC83D"/>
<path d="M8.46928 16.499L4.04053 20.8725C4.4324 21.0468 4.85896 21.0871 5.26865 20.9775L8.52084 17.7656L8.49365 17.7806C8.63428 17.3503 8.6399 16.8993 8.46928 16.499ZM11.4805 18.9215L6.5249 23.8518C6.92334 24.0121 7.34803 24.0637 7.77365 23.9315L11.3427 20.3821L11.338 20.3831C11.5677 19.8956 11.6446 19.4006 11.4805 18.9215ZM13.6621 21.8006L9.05146 26.0175C9.43021 26.1834 9.8624 26.234 10.3124 26.1346L13.6058 23.1225C13.7652 22.7221 13.8215 22.2675 13.6621 21.8006Z" fill="#D67D00"/>
</svg>
