<svg width="16" height="17" viewBox="0 0 16 17" fill="none" xmlns="http://www.w3.org/2000/svg">
<mask id="path-1-inside-1_229_6510" fill="white">
<path fill-rule="evenodd" clip-rule="evenodd" d="M11.0201 6.48141C11.2154 6.67667 11.2154 6.99325 11.0201 7.18849L8.35345 9.85516C8.15818 10.0504 7.84165 10.0504 7.64638 9.85516L4.9797 7.18849C4.78444 6.99325 4.78444 6.67667 4.9797 6.48141C5.17496 6.28615 5.49154 6.28615 5.6868 6.48141L7.99992 8.79449L10.3131 6.48141C10.5083 6.28615 10.8249 6.28615 11.0201 6.48141Z"/>
</mask>
<path fill-rule="evenodd" clip-rule="evenodd" d="M11.0201 6.48141C11.2154 6.67667 11.2154 6.99325 11.0201 7.18849L8.35345 9.85516C8.15818 10.0504 7.84165 10.0504 7.64638 9.85516L4.9797 7.18849C4.78444 6.99325 4.78444 6.67667 4.9797 6.48141C5.17496 6.28615 5.49154 6.28615 5.6868 6.48141L7.99992 8.79449L10.3131 6.48141C10.5083 6.28615 10.8249 6.28615 11.0201 6.48141Z" fill="black"/>
<path d="M11.0201 7.18849L10.3131 6.48134L10.313 6.48139L11.0201 7.18849ZM8.35345 9.85516L7.64634 9.14805V9.14805L8.35345 9.85516ZM7.64638 9.85516L8.35349 9.14805L8.35349 9.14805L7.64638 9.85516ZM4.9797 7.18849L5.6868 6.48138L5.68677 6.48135L4.9797 7.18849ZM5.6868 6.48141L4.9797 7.18851L4.9797 7.18852L5.6868 6.48141ZM7.99992 8.79449L7.29281 9.5016L7.99991 10.2087L8.70702 9.50161L7.99992 8.79449ZM10.3131 6.48141L9.60596 5.77429L9.60595 5.77429L10.3131 6.48141ZM11.0201 6.48141L10.313 7.18852C10.1178 6.99328 10.1177 6.67665 10.3131 6.48134L11.0201 7.18849L11.7272 7.89565C12.3131 7.30985 12.313 6.36005 11.7272 5.77429L11.0201 6.48141ZM11.0201 7.18849L10.313 6.48139L7.64634 9.14805L8.35345 9.85516L9.06056 10.5623L11.7272 7.8956L11.0201 7.18849ZM8.35345 9.85516L7.64634 9.14805C7.8416 8.95279 8.15823 8.95279 8.35349 9.14805L7.64638 9.85516L6.93928 10.5623C7.52507 11.1481 8.47477 11.1481 9.06056 10.5623L8.35345 9.85516ZM7.64638 9.85516L8.35349 9.14805L5.6868 6.48138L4.9797 7.18849L4.27259 7.8956L6.93928 10.5623L7.64638 9.85516ZM4.9797 7.18849L5.68677 6.48135C5.8821 6.67666 5.88205 6.99327 5.6868 7.18851L4.9797 6.48141L4.27259 5.7743C3.68683 6.36006 3.68677 7.30984 4.27263 7.89564L4.9797 7.18849ZM4.9797 6.48141L5.6868 7.18851C5.49154 7.38378 5.17496 7.38378 4.9797 7.18851L5.6868 6.48141L6.39391 5.7743C5.80813 5.18851 4.85837 5.18851 4.27259 5.7743L4.9797 6.48141ZM5.6868 6.48141L4.9797 7.18852L7.29281 9.5016L7.99992 8.79449L8.70702 8.08738L6.39391 5.77429L5.6868 6.48141ZM7.99992 8.79449L8.70702 9.50161L11.0201 7.18852L10.3131 6.48141L9.60595 5.77429L7.29282 8.08738L7.99992 8.79449ZM10.3131 6.48141L11.0201 7.18852C10.8249 7.38377 10.5083 7.38377 10.313 7.18852L11.0201 6.48141L11.7272 5.77429C11.1414 5.18852 10.1917 5.18852 9.60596 5.77429L10.3131 6.48141Z" fill="black" mask="url(#path-1-inside-1_229_6510)"/>
</svg>
