<svg width="20" height="21" viewBox="0 0 20 21" fill="none" xmlns="http://www.w3.org/2000/svg">
<path d="M7 8.5L10.258 10.944C10.4598 11.0954 10.7114 11.1649 10.9624 11.1385C11.2133 11.1122 11.445 10.992 11.611 10.802L18 3.5" stroke="#4ADE80" stroke-width="2" stroke-linecap="round"/>
<path d="M19 10.4998C19 12.3804 18.411 14.2137 17.3157 15.7423C16.2203 17.2708 14.6736 18.4179 12.8929 19.0224C11.1122 19.6269 9.18685 19.6583 7.3873 19.1124C5.58776 18.5665 4.00442 17.4706 2.85967 15.9787C1.71492 14.4867 1.06627 12.6736 1.00481 10.7941C0.943352 8.91461 1.47218 7.06305 2.51702 5.4995C3.56187 3.93595 5.07023 2.73896 6.83027 2.07665C8.5903 1.41435 10.5136 1.31999 12.33 1.80684" stroke="#4ADE80" stroke-width="2" stroke-linecap="round"/>
</svg>
