<svg width="123" height="19" viewBox="0 0 123 19" fill="none" xmlns="http://www.w3.org/2000/svg">
<path d="M6.94111 18.7147C5.7351 18.7147 4.58651 18.5247 3.49536 18.1447C2.4042 17.7648 1.5284 17.274 0.882324 16.6883L1.87298 14.2503C2.49035 14.7886 3.25128 15.2318 4.15579 15.5801C5.0603 15.9284 5.99353 16.1184 6.94111 16.1184C7.74512 16.1184 8.3912 16.0234 8.8937 15.8334C9.39621 15.6434 9.75515 15.3743 9.98486 15.0418C10.2146 14.7094 10.3294 14.3295 10.3294 13.9178C10.3294 13.3954 10.1571 12.9838 9.82693 12.6672C9.49671 12.3506 9.05164 12.0973 8.52042 11.9231C7.9892 11.7332 7.38619 11.559 6.74011 11.4007C6.09403 11.2424 5.43359 11.0524 4.78752 10.8308C4.14144 10.6092 3.53843 10.3242 3.0072 9.97591C2.47598 9.62763 2.03091 9.16854 1.70069 8.58279C1.37047 7.99705 1.19819 7.25297 1.19819 6.3506C1.19819 5.4324 1.42791 4.59336 1.87298 3.81763C2.31806 3.05774 2.99285 2.44034 3.91172 1.98124C4.83059 1.52214 5.97917 1.28467 7.38619 1.28467C8.30505 1.28467 9.22393 1.41132 10.1284 1.66462C11.0329 1.91791 11.8226 2.29786 12.4974 2.77279L11.5929 5.21077C10.9037 4.75167 10.2002 4.41921 9.468 4.21341C8.73577 3.99178 8.03227 3.88096 7.35748 3.88096C6.56783 3.88096 5.92174 3.99178 5.43359 4.19758C4.94545 4.40339 4.58651 4.68836 4.3568 5.02081C4.12708 5.35326 4.01222 5.74903 4.01222 6.17646C4.01222 6.69889 4.17015 7.1105 4.50037 7.42712C4.83059 7.74374 5.26131 7.9812 5.79253 8.17117C6.32375 8.34531 6.92675 8.51946 7.58719 8.6936C8.24763 8.86774 8.89371 9.05771 9.55414 9.26352C10.2002 9.46932 10.8032 9.75429 11.3344 10.0867C11.8657 10.4192 12.2964 10.8783 12.6266 11.464C12.9568 12.0498 13.1148 12.778 13.1148 13.6646C13.1148 14.5669 12.885 15.406 12.44 16.1658C11.9949 16.9257 11.3057 17.5432 10.3869 18.0023C9.51107 18.4772 8.34813 18.7147 6.94111 18.7147Z" fill="#FFD400"/>
<path d="M20.1388 18.6356C19.263 18.6356 18.4877 18.4773 17.8273 18.1448C17.1668 17.8124 16.6643 17.3533 16.3054 16.7675C15.9465 16.1818 15.7742 15.5169 15.7742 14.7728C15.7742 14.0446 15.9321 13.3955 16.248 12.8098C16.5638 12.224 17.0807 11.7649 17.7985 11.4325C18.5164 11.1 19.464 10.9259 20.6557 10.9259H24.0583V12.9364H20.8567C19.9234 12.9364 19.2917 13.0947 18.9758 13.4272C18.66 13.7596 18.4877 14.1712 18.4877 14.6462C18.4877 15.2003 18.6887 15.6277 19.0764 15.9602C19.4784 16.2768 20.0239 16.4509 20.7274 16.4509C21.4022 16.4509 22.0052 16.2768 22.5365 15.9443C23.0677 15.6119 23.4553 15.1053 23.685 14.4404L24.1445 16.2609C23.886 17.0208 23.4123 17.6066 22.7231 18.034C22.034 18.4298 21.1725 18.6356 20.1388 18.6356ZM23.8286 18.4614V15.8493L23.6707 15.2952V10.7201C23.6707 9.83354 23.4266 9.13696 22.9528 8.6462C22.4647 8.15544 21.7325 7.90215 20.7562 7.90215C20.0957 7.90215 19.4496 8.01296 18.8179 8.2346C18.1862 8.45623 17.6406 8.77285 17.2099 9.18446L16.1331 6.98394C16.7648 6.44569 17.5114 6.04991 18.3872 5.78079C19.263 5.51166 20.1675 5.38501 21.1007 5.38501C22.7949 5.38501 24.1158 5.82828 25.0346 6.73065C25.9679 7.63302 26.4273 9.01033 26.4273 10.8784V18.4614H23.8286Z" fill="#FFD400"/>
<path d="M29.2412 8.06052V5.63836H37.0516V8.06052H29.2412ZM31.1794 18.4615V4.81515C31.1794 3.45368 31.5384 2.37718 32.2706 1.55396C32.9885 0.74658 34.0366 0.334961 35.3718 0.334961C35.8599 0.334961 36.305 0.398301 36.7501 0.509118C37.1808 0.619935 37.5397 0.794061 37.8412 1.04736L37.0947 3.32703C36.8937 3.15289 36.6496 3.01041 36.3912 2.93126C36.1327 2.83627 35.8599 2.80462 35.5728 2.80462C34.9985 2.80462 34.5678 2.97875 34.2806 3.32703C33.9935 3.67532 33.8356 4.19774 33.8356 4.89431V6.35076L33.9217 7.71224V18.509H31.1794V18.4615Z" fill="#FFD400"/>
<path d="M45.1187 18.6356C43.8122 18.6356 42.678 18.3506 41.7017 17.7807C40.7254 17.2108 39.9788 16.4193 39.4476 15.4219C38.9163 14.4245 38.6436 13.2847 38.6436 12.0024C38.6436 10.7042 38.902 9.56442 39.4189 8.58289C39.9357 7.58554 40.6536 6.80981 41.5725 6.23989C42.4913 5.66997 43.525 5.38501 44.7023 5.38501C45.8509 5.38501 46.8559 5.65415 47.7604 6.20824C48.6506 6.76232 49.3541 7.53804 49.871 8.53539C50.3878 9.53275 50.6463 10.7201 50.6463 12.0657C50.6463 12.1924 50.6463 12.3348 50.6319 12.509C50.6176 12.6673 50.6176 12.8256 50.6032 12.9681H40.8402V10.9575H49.1531L48.0763 11.5908C48.0907 10.8467 47.9471 10.1977 47.6599 9.62774C47.3728 9.05782 46.9708 8.61455 46.4683 8.29793C45.9658 7.9813 45.3771 7.80717 44.7167 7.80717C44.0419 7.80717 43.4533 7.96547 42.9507 8.29793C42.4482 8.61455 42.0462 9.07365 41.7591 9.64356C41.4719 10.2135 41.3284 10.8942 41.3284 11.6699V12.1607C41.3284 12.9364 41.4863 13.6172 41.8165 14.2187C42.1324 14.8203 42.5918 15.2794 43.1805 15.596C43.7691 15.9127 44.4439 16.0868 45.2048 16.0868C45.8653 16.0868 46.4539 15.976 46.9852 15.7543C47.5164 15.5327 47.9758 15.1686 48.3922 14.6937L49.8566 16.5617C49.3254 17.2425 48.665 17.7649 47.8753 18.129C47.0426 18.4615 46.1381 18.6356 45.1187 18.6356Z" fill="#FFD400"/>
<path d="M54.3958 18.4614V1.52222H60.713C62.0769 1.52222 63.2399 1.7597 64.2162 2.25046C65.1925 2.74122 65.939 3.42195 66.4702 4.32432C67.0015 5.22669 67.2599 6.30319 67.2599 7.53801C67.2599 8.77284 67.0015 9.84935 66.4702 10.7517C65.939 11.6541 65.1925 12.3348 64.2162 12.8098C63.2399 13.2847 62.0769 13.5222 60.713 13.5222H55.9751L57.2529 12.0974V18.4614H54.3958ZM57.2529 12.4456L55.9751 10.9417H60.5837C61.8472 10.9417 62.7948 10.6409 63.4265 10.0393C64.0582 9.43775 64.3884 8.61454 64.3884 7.55386C64.3884 6.47735 64.0726 5.63829 63.4265 5.06837C62.7948 4.48263 61.8472 4.19767 60.5837 4.19767H55.9751L57.2529 2.64624V12.4456ZM64.4602 18.4614L60.5694 12.319H63.6275L67.5327 18.4614H64.4602Z" fill="#FFD400"/>
<path d="M74.4769 18.6356C73.6011 18.6356 72.8258 18.4773 72.1654 18.1448C71.505 17.8124 71.0025 17.3533 70.6435 16.7675C70.2846 16.1818 70.1123 15.5169 70.1123 14.7728C70.1123 14.0446 70.2702 13.3955 70.5861 12.8098C70.902 12.224 71.4188 11.7649 72.1367 11.4325C72.8545 11.1 73.8021 10.9259 74.9938 10.9259H78.3965V12.9364H75.1948C74.2616 12.9364 73.6299 13.0947 73.314 13.4272C72.9981 13.7596 72.8258 14.1712 72.8258 14.6462C72.8258 15.2003 73.0268 15.6277 73.4145 15.9602C73.8165 16.2768 74.3621 16.4509 75.0656 16.4509C75.7404 16.4509 76.3434 16.2768 76.8746 15.9443C77.4058 15.6119 77.7935 15.1053 78.0232 14.4404L78.4826 16.2609C78.2242 17.0208 77.7504 17.6066 77.0612 18.034C76.3865 18.4298 75.525 18.6356 74.4769 18.6356ZM78.1668 18.4614V15.8493L78.0088 15.2952V10.7201C78.0088 9.83354 77.7648 9.13696 77.291 8.6462C76.8028 8.15544 76.0706 7.90215 75.0943 7.90215C74.4338 7.90215 73.7878 8.01296 73.156 8.2346C72.5243 8.45623 71.9788 8.77285 71.548 9.18446L70.4712 6.98394C71.103 6.44569 71.8495 6.04991 72.7253 5.78079C73.6011 5.51166 74.5056 5.38501 75.4389 5.38501C77.133 5.38501 78.4539 5.82828 79.3728 6.73065C80.306 7.63302 80.7654 9.01033 80.7654 10.8784V18.4614H78.1668Z" fill="#FFD400"/>
<path d="M90.1292 18.6356C89.0094 18.6356 87.99 18.3506 87.0855 17.7965C86.181 17.2424 85.4775 16.4667 84.9606 15.4852C84.4437 14.5037 84.1853 13.3322 84.1853 12.0023C84.1853 10.6567 84.4437 9.50104 84.9606 8.51952C85.4775 7.53799 86.181 6.76227 87.0855 6.22401C87.99 5.66993 88.995 5.40079 90.1292 5.40079C91.1055 5.40079 91.9813 5.63825 92.7566 6.11319C93.5319 6.58812 94.1493 7.31636 94.5944 8.28205C95.0538 9.24774 95.2691 10.4984 95.2691 12.0023C95.2691 13.5063 95.0538 14.7411 94.6087 15.7226C94.1636 16.7042 93.5606 17.4324 92.7853 17.9073C92.0388 18.3981 91.1486 18.6356 90.1292 18.6356ZM90.4594 16.0551C91.1199 16.0551 91.7085 15.8968 92.2254 15.5643C92.7423 15.2477 93.1586 14.7728 93.4745 14.1554C93.7903 13.538 93.9483 12.8256 93.9483 12.0023C93.9483 11.1633 93.7903 10.4351 93.4745 9.83348C93.1586 9.2319 92.7423 8.75698 92.2254 8.44036C91.7085 8.12374 91.1199 7.9496 90.4594 7.9496C89.799 7.9496 89.2104 8.10791 88.6935 8.44036C88.1766 8.75698 87.7603 9.2319 87.4444 9.83348C87.1285 10.4351 86.9706 11.1633 86.9706 12.0023C86.9706 12.8256 87.1285 13.538 87.4444 14.1554C87.7603 14.7728 88.1766 15.2319 88.6935 15.5643C89.2104 15.881 89.799 16.0551 90.4594 16.0551ZM94.0201 18.4614V15.406L94.1349 11.9707L93.9196 8.53534V0.493164H96.6475V18.4456H94.0201V18.4614Z" fill="#FFD400"/>
<path d="M104.673 18.6356C103.797 18.6356 103.022 18.4773 102.361 18.1448C101.701 17.8124 101.198 17.3533 100.84 16.7675C100.481 16.1818 100.308 15.5169 100.308 14.7728C100.308 14.0446 100.466 13.3955 100.782 12.8098C101.098 12.224 101.615 11.7649 102.333 11.4325C103.051 11.1 103.998 10.9259 105.19 10.9259H108.593V12.9364H105.391C104.458 12.9364 103.826 13.0947 103.51 13.4272C103.194 13.7596 103.022 14.1712 103.022 14.6462C103.022 15.2003 103.223 15.6277 103.611 15.9602C104.013 16.2768 104.558 16.4509 105.262 16.4509C105.936 16.4509 106.539 16.2768 107.071 15.9443C107.602 15.6119 107.99 15.1053 108.219 14.4404L108.679 16.2609C108.42 17.0208 107.946 17.6066 107.257 18.034C106.568 18.4298 105.707 18.6356 104.673 18.6356ZM108.348 18.4614V15.8493L108.191 15.2952V10.7201C108.191 9.83354 107.946 9.13696 107.473 8.6462C106.984 8.15544 106.252 7.90215 105.276 7.90215C104.616 7.90215 103.969 8.01296 103.338 8.2346C102.706 8.45623 102.16 8.77285 101.73 9.18446L100.653 6.98394C101.285 6.44569 102.031 6.04991 102.907 5.78079C103.783 5.51166 104.687 5.38501 105.621 5.38501C107.315 5.38501 108.636 5.82828 109.554 6.73065C110.488 7.63302 110.947 9.01033 110.947 10.8784V18.4614H108.348Z" fill="#FFD400"/>
<path d="M115.34 18.4615V5.54336H117.953V9.10535L117.652 8.0605C117.996 7.18979 118.556 6.52489 119.303 6.08162C120.05 5.62252 120.997 5.40088 122.117 5.40088V8.28214C122.002 8.25048 121.887 8.23464 121.787 8.21881C121.686 8.21881 121.586 8.20299 121.485 8.20299C120.452 8.20299 119.619 8.53543 119.001 9.20033C118.384 9.86523 118.083 10.8626 118.083 12.1924V18.4615H115.34Z" fill="#FFD400"/>
</svg>
