<svg width="81" height="72" viewBox="0 0 81 72" fill="none" xmlns="http://www.w3.org/2000/svg">
<path d="M24.8688 4.2479L17.4158 6.80542L21.5424 18.845L28.9955 16.2875L24.8688 4.2479Z" fill="#FFD400"/>
<path d="M18.8091 12.6727L16.7737 13.3711L17.1843 14.5691L19.2197 13.8706L18.8091 12.6727Z" fill="#FFD400"/>
<path d="M21.8594 4.47752L21.3872 3.09985L20.1899 3.5107L20.6621 4.88836L21.8594 4.47752Z" fill="#FFD400"/>
<path d="M27.5869 10.4287L29.6223 9.73022L29.2117 8.53226L27.1763 9.2307L27.5869 10.4287Z" fill="#FFD400"/>
<path d="M5.86808 13.5396L2.14478 14.8757L3.45344 18.5267L7.17675 17.1905L5.86808 13.5396Z" fill="#FFD400"/>
<path d="M7.35539 17.6875L3.63208 19.0237L4.94075 22.6746L8.66406 21.3385L7.35539 17.6875Z" fill="#FFD400"/>
<path d="M10.4555 11.9532L6.73218 13.2893L8.04085 16.9402L11.7642 15.6041L10.4555 11.9532Z" fill="#FFD400"/>
<path d="M11.9428 16.1016L8.21948 17.4377L9.52815 21.0887L13.2515 19.7525L11.9428 16.1016Z" fill="#FFD400"/>
<path d="M15.027 10.3724L11.3037 11.7085L12.6124 15.3594L16.3357 14.0233L15.027 10.3724Z" fill="#FFD400"/>
<path d="M16.5197 14.5203L12.7964 15.8564L14.1051 19.5074L17.8284 18.1712L16.5197 14.5203Z" fill="#FFD400"/>
<path d="M40.5321 9.57149L44.2554 8.23535L42.9467 4.58442L39.2234 5.92056L40.5321 9.57149Z" fill="#FFD400"/>
<path d="M39.0448 5.42012L42.7681 4.08398L41.4594 0.433053L37.7361 1.76919L39.0448 5.42012Z" fill="#FFD400"/>
<path d="M35.9657 11.1555L39.689 9.81934L38.3803 6.1684L34.657 7.50454L35.9657 11.1555Z" fill="#FFD400"/>
<path d="M34.4784 7.00411L38.2017 5.66797L36.893 2.01704L33.1697 3.35318L34.4784 7.00411Z" fill="#FFD400"/>
<path d="M31.3836 12.7448L35.1069 11.4087L33.7983 7.75776L30.075 9.0939L31.3836 12.7448Z" fill="#FFD400"/>
<path d="M29.8961 8.59346L33.6194 7.25732L32.3107 3.60639L28.5874 4.94253L29.8961 8.59346Z" fill="#FFD400"/>
<path d="M20.0081 2.75461C20.7683 2.75461 21.3846 2.13796 21.3846 1.3773C21.3846 0.616641 20.7683 0 20.0081 0C19.2479 0 18.6316 0.616641 18.6316 1.3773C18.6316 2.13796 19.2479 2.75461 20.0081 2.75461Z" fill="#FFD400"/>
<path d="M22.0247 25.7734L22.6575 24.3803C26.2491 25.995 30.4736 24.3803 32.0874 20.7866L33.4798 21.4199C31.5178 25.7734 26.3915 27.7206 22.0247 25.7734Z" fill="#FFD400"/>
<path d="M23.3972 22.7018L24.0301 21.3087C25.9287 22.1635 28.1755 21.3087 29.0298 19.4089L30.4222 20.0422C29.2197 22.7018 26.0711 23.905 23.3972 22.7018Z" fill="#FFD400"/>
<path d="M24.7698 19.6309L25.4027 18.2378C25.6083 18.3328 25.8615 18.2378 25.9564 18.032L27.3488 18.6652C26.9058 19.6309 25.7507 20.0742 24.7698 19.6309Z" fill="#FFD400"/>
<path d="M7.25461 36.1263C5.15029 36.1105 3.39404 37.8361 3.39404 39.9574C3.39404 40.2582 3.42568 40.5432 3.48897 40.8282C3.55226 41.0814 3.63137 41.3189 3.7263 41.5405C3.85288 41.8255 4.02692 42.1105 4.21679 42.3479L6.96981 46.8439C7.08056 47.0181 7.31789 47.0181 7.42865 46.8439L10.1817 42.3479C10.3715 42.0946 10.5456 41.8255 10.6722 41.5405C10.7671 41.3189 10.862 41.0814 10.9095 40.8282C10.9728 40.5432 11.0044 40.2582 11.0044 39.9574C11.0361 37.8519 9.34311 36.158 7.25461 36.1263ZM9.9127 40.5907C9.86524 40.7648 9.81776 40.939 9.73865 41.1131C9.64372 41.3189 9.51715 41.5247 9.37475 41.6989C8.86845 42.3321 8.09317 42.7437 7.20714 42.7437C6.33693 42.7437 5.54584 42.3321 5.03953 41.6989C4.89714 41.5247 4.77055 41.3189 4.67562 41.1131C4.59651 40.9548 4.54905 40.7807 4.50158 40.5907C4.45412 40.3849 4.43829 40.1791 4.43829 39.9574C4.43829 38.4218 5.6724 37.187 7.20714 37.187C8.74187 37.187 9.97598 38.4218 9.97598 39.9574C9.97598 40.1791 9.96017 40.3849 9.9127 40.5907Z" fill="#FFD400"/>
<path d="M73.3127 30.7125C71.2084 30.6967 69.4521 32.4223 69.4521 34.5436C69.4521 34.8444 69.4838 35.1294 69.5471 35.4143C69.6104 35.6676 69.6895 35.9051 69.7844 36.1267C69.911 36.4117 70.085 36.6966 70.2749 36.9341L73.0279 41.4301C73.1387 41.6043 73.376 41.6043 73.4868 41.4301L76.2556 36.9183C76.4455 36.665 76.6195 36.3959 76.7461 36.1109C76.841 35.8893 76.9359 35.6518 76.9834 35.3985C77.0467 35.1135 77.0783 34.8286 77.0783 34.5278C77.0942 32.4381 75.4012 30.7442 73.3127 30.7125ZM75.9708 35.161C75.9233 35.3352 75.8759 35.5093 75.7968 35.6835C75.7018 35.8893 75.5753 36.0951 75.4329 36.2692C74.9266 36.9025 74.1513 37.3141 73.2652 37.3141C72.3792 37.3141 71.6039 36.9025 71.0976 36.2692C70.9552 36.0951 70.8287 35.8893 70.7337 35.6835C70.6546 35.5252 70.6072 35.351 70.5597 35.161C70.5122 34.9552 70.4964 34.7494 70.4964 34.5278C70.4964 32.9922 71.7305 31.7574 73.2652 31.7574C74.8 31.7574 76.0341 32.9922 76.0341 34.5278C76.0499 34.7494 76.0183 34.9711 75.9708 35.161Z" fill="#FFD400"/>
<path d="M42.1951 53.8416C45.2185 53.8416 47.6695 51.3892 47.6695 48.364C47.6695 45.3388 45.2185 42.8865 42.1951 42.8865C39.1717 42.8865 36.7207 45.3388 36.7207 48.364C36.7207 51.3892 39.1717 53.8416 42.1951 53.8416Z" fill="#FFD400"/>
<path d="M42.1888 52.306C42.6781 52.306 43.0748 51.9091 43.0748 51.4195C43.0748 50.9299 42.6781 50.533 42.1888 50.533C41.6994 50.533 41.3027 50.9299 41.3027 51.4195C41.3027 51.9091 41.6994 52.306 42.1888 52.306Z" fill="black"/>
<path d="M42.1954 44.5012C41.7049 44.5012 41.3252 44.9128 41.3568 45.4036L41.6574 49.298C41.6733 49.583 41.9106 49.7888 42.1954 49.7888C42.4802 49.7888 42.7175 49.5672 42.7333 49.298L43.0339 45.4036C43.0814 44.9128 42.6859 44.5012 42.1954 44.5012Z" fill="black"/>
<path d="M5.59325 62.9285C5.32428 62.6119 5.03948 62.2636 4.77051 61.8836L5.38756 61.4246C5.65653 61.7887 5.92551 62.1211 6.17866 62.4219L5.59325 62.9285Z" fill="#FFD400"/>
<path d="M33.7106 71.3348C32.9036 71.3348 32.1758 71.1923 31.5271 70.8915L31.8436 70.195C32.3815 70.4483 32.9828 70.5749 33.6947 70.5749C33.8846 70.5749 34.1061 70.5591 34.3118 70.5433L34.3751 71.3031C34.1694 71.319 33.9321 71.3348 33.7106 71.3348ZM29.407 68.9127C28.9007 68.1053 28.521 67.1712 28.2203 66.3639L28.9482 66.0947C29.2329 66.8705 29.581 67.757 30.0715 68.5011L29.407 68.9127ZM10.3415 65.9523C9.43965 65.9364 8.55361 65.5881 7.62012 64.8916L8.07895 64.2742C8.88587 64.8758 9.62951 65.1607 10.3573 65.1765L10.3415 65.9523ZM13.0945 64.9707L12.6515 64.3375C13.3477 63.8467 14.028 63.1976 14.6609 62.5802L15.1988 63.1343C14.5501 63.7676 13.8382 64.4483 13.0945 64.9707ZM27.2868 63.7834C26.8913 62.7702 26.5116 62.0261 26.1002 61.4087L26.7331 60.9813C27.1761 61.6304 27.5875 62.4378 27.9988 63.4984L27.2868 63.7834ZM17.1766 61.2504L16.6703 60.6647C17.5089 59.9365 18.2525 59.4299 18.9961 59.0658L19.3284 59.7623C18.648 60.0948 17.9519 60.5697 17.1766 61.2504ZM24.249 59.7148C23.7269 59.4457 23.1415 59.2715 22.4928 59.1924C22.2713 59.1607 22.0498 59.1607 21.8283 59.1607H21.7966V58.385H21.8283C22.0814 58.385 22.3346 58.4008 22.5719 58.4325C23.3155 58.5117 23.9959 58.7175 24.5971 59.0341L24.249 59.7148Z" fill="#FFD400"/>
<path d="M37.1924 70.6541L36.9392 69.9259C37.3189 69.7993 37.7145 69.6409 38.1417 69.4668L38.4423 70.1792C38.0151 70.3533 37.5879 70.5116 37.1924 70.6541Z" fill="#FFD400"/>
<path d="M47.2872 70.6224C46.8758 70.5274 46.4328 70.4166 45.9897 70.2741L46.2271 69.5459C46.6384 69.6725 47.0498 69.7834 47.4454 69.8783L47.2872 70.6224Z" fill="#FFD400"/>
<path d="M50.0245 70.8125L49.9612 70.0368C50.7997 69.9576 51.5908 69.7518 52.3345 69.3719L52.6826 70.0685C51.8282 70.4801 50.9738 70.7333 50.0245 70.8125ZM54.8976 68.4695L54.3597 67.9154C54.8976 67.4088 55.4356 66.7914 56.0685 65.984L56.6697 66.459C56.021 67.298 55.4514 67.9313 54.8976 68.4695ZM71.7006 64.4009C71.3208 64.4009 70.9569 64.3534 70.593 64.2584L70.7829 63.5144C71.2576 63.6252 71.748 63.6569 72.2543 63.5936C72.555 63.5461 72.8556 63.4827 73.1404 63.3719L73.4094 64.0843C73.0771 64.211 72.7132 64.306 72.3493 64.3534C72.1278 64.3851 71.9063 64.4009 71.7006 64.4009ZM58.2677 64.3376L57.6507 63.8785C58.1411 63.2294 58.7265 62.4695 59.3436 61.8046L59.9132 62.3271C59.312 62.9603 58.7424 63.7044 58.2677 64.3376ZM68.1565 62.9287C67.7767 62.612 67.4128 62.2637 67.0647 61.9471C66.7641 61.6622 66.4952 61.4089 66.1945 61.1556L66.7008 60.5698C67.0014 60.8231 67.3021 61.1081 67.5869 61.3772C67.9349 61.6938 68.283 62.0263 68.6469 62.3271L68.1565 62.9287ZM75.6244 62.3429L74.9916 61.8996C75.4346 61.2822 75.751 60.5223 75.9567 59.6358L76.7162 59.7941C76.4946 60.7756 76.1307 61.6305 75.6244 62.3429ZM61.8277 60.7281L61.4479 60.0632C62.065 59.7149 62.6821 59.4775 63.3466 59.3667C63.6156 59.3192 63.9003 59.3033 64.1693 59.3192L64.106 60.0949C63.9003 60.0791 63.6947 60.0949 63.489 60.1265C62.9036 60.2215 62.3656 60.4115 61.8277 60.7281Z" fill="#FFD400"/>
<path d="M76.1657 57.0712C76.1499 56.6596 76.1183 56.2322 76.0708 55.8047L76.8302 55.7097C76.8935 56.1688 76.9252 56.6121 76.941 57.0395L76.1657 57.0712Z" fill="#FFD400"/>
<path d="M7.43188 60.4904C7.09962 60.4904 6.83065 60.2372 6.78318 59.9205L6.49838 57.6725L5.43831 56.6593C5.42249 56.6435 5.39084 56.6277 5.34338 56.6277C5.29591 56.6277 5.26426 56.6435 5.23262 56.691L4.15673 58.3849H1.16638C0.834116 58.3849 0.549316 58.1158 0.549316 57.7675C0.549316 57.435 0.818294 57.1501 1.16638 57.1501H3.47638L5.48578 52.29H4.74214C4.66303 52.29 4.58392 52.3375 4.55228 52.4166L4.09344 53.5406C3.99851 53.7622 3.79282 53.9047 3.55549 53.9047C3.49221 53.9047 3.44474 53.8889 3.38146 53.8731C3.22324 53.8256 3.09666 53.7147 3.03337 53.5564C2.97008 53.414 2.97008 53.2398 3.03337 53.0815L3.72953 51.4826C3.84029 51.2134 4.10927 51.0393 4.40988 51.0393H6.92557C7.09962 51.0393 7.27366 51.1343 7.36859 51.2926L8.30209 52.8915L10.0742 52.6066C10.1058 52.6066 10.1374 52.6066 10.1691 52.6066C10.4381 52.6066 10.6754 52.7966 10.7228 53.0657C10.7861 53.3665 10.5805 53.6673 10.2798 53.7306L7.76414 54.2372L7.27366 53.6039L6.48256 55.5195C6.41927 55.6778 6.45091 55.8678 6.57749 56.0102L7.5901 57.1026C7.70085 57.2134 7.76414 57.3559 7.77996 57.5142L8.08058 59.778C8.11222 59.968 8.04893 60.158 7.92236 60.3005C7.8116 60.4113 7.62174 60.4904 7.43188 60.4904Z" fill="#FFD400"/>
<path d="M7.71687 50.9446C8.38098 50.9446 8.91935 50.406 8.91935 49.7415C8.91935 49.077 8.38098 48.5383 7.71687 48.5383C7.05276 48.5383 6.5144 49.077 6.5144 49.7415C6.5144 50.406 7.05276 50.9446 7.71687 50.9446Z" fill="#FFD400"/>
<path d="M73.5701 54.8232C73.9024 54.8232 74.1713 54.5699 74.2188 54.2533L74.5036 52.0053L75.5637 50.9921C75.5795 50.9763 75.6111 50.9604 75.6586 50.9604C75.7061 50.9604 75.7377 50.9763 75.7694 51.0237L76.8453 52.7177H79.8356C80.1679 52.7177 80.4527 52.4485 80.4527 52.1003C80.4527 51.752 80.1837 51.4829 79.8356 51.4829H77.5256L75.5162 46.6227H76.2915C76.3706 46.6227 76.4497 46.6702 76.4814 46.7494L76.9402 47.8734C77.0351 48.095 77.2408 48.2375 77.4781 48.2375C77.5414 48.2375 77.5889 48.2217 77.6522 48.2058C77.8104 48.1583 77.937 48.0475 78.0003 47.8892C78.0636 47.7467 78.0636 47.5726 78.0003 47.4143L77.3041 45.8153C77.1933 45.5462 76.9244 45.3721 76.6238 45.3721H74.1081C73.934 45.3721 73.76 45.4671 73.665 45.6254L72.7315 47.2243L70.9595 46.9393C70.9278 46.9393 70.8962 46.9393 70.8646 46.9393C70.5956 46.9393 70.3583 47.1293 70.3108 47.3984C70.2475 47.6992 70.4532 48 70.7538 48.0633L73.2695 48.5699L73.76 47.9367L74.5511 49.8523C74.6144 50.0106 74.5827 50.2005 74.4561 50.343L73.4435 51.4354C73.3328 51.5462 73.2695 51.6887 73.2537 51.847L72.953 54.1108C72.9214 54.3008 72.9847 54.4908 73.1113 54.6332C73.1904 54.7441 73.3802 54.8232 73.5701 54.8232Z" fill="#FFD400"/>
<path d="M73.2865 45.2928C73.9506 45.2928 74.4889 44.7541 74.4889 44.0896C74.4889 43.4251 73.9506 42.8865 73.2865 42.8865C72.6223 42.8865 72.084 43.4251 72.084 44.0896C72.084 44.7541 72.6223 45.2928 73.2865 45.2928Z" fill="#FFD400"/>
<path d="M42.2435 58.7968C43.1785 58.7968 43.9364 58.0384 43.9364 57.1028C43.9364 56.1673 43.1785 55.4089 42.2435 55.4089C41.3085 55.4089 40.5505 56.1673 40.5505 57.1028C40.5505 58.0384 41.3085 58.7968 42.2435 58.7968Z" fill="#FFD400"/>
<path d="M43.8542 61.979C43.8701 61.979 43.8701 61.979 43.8542 61.979C44.1232 62.5014 44.6137 63.5146 44.9301 64.1478C45.0884 64.4486 45.4523 64.5753 45.7687 64.4328C46.0693 64.2745 46.1959 63.9104 46.0535 63.5937L44.6453 60.7283L44.1707 59.7468C43.9808 59.3668 43.6011 59.1294 43.1897 59.1294H42.2088H41.2278C40.8164 59.1294 40.4367 59.3668 40.2468 59.7468L39.7722 60.7283L38.364 63.5937C38.2058 63.8945 38.3324 64.2745 38.6488 64.4328C38.9494 64.5911 39.3292 64.4644 39.4874 64.1478C39.8038 63.5146 40.2943 62.5014 40.5633 61.979L39.2975 66.0159C39.1551 66.3642 39.3924 66.7441 39.7722 66.7441H40.4842C40.5316 66.7441 40.5791 66.7758 40.5791 66.8391V70.0528C40.5791 70.4803 40.9272 70.8285 41.3544 70.8285C41.7816 70.8285 42.1296 70.4803 42.1296 70.0528V66.8075C42.1296 66.7758 42.1613 66.7441 42.1929 66.7441H42.272C42.3037 66.7441 42.3353 66.7758 42.3353 66.8075V70.0528C42.3353 70.4803 42.6834 70.8285 43.1106 70.8285C43.5378 70.8285 43.8859 70.4803 43.8859 70.0528V66.8391C43.8859 66.7916 43.9175 66.7441 43.9808 66.7441H44.6928C45.0567 66.7441 45.3099 66.3642 45.1675 66.0159L43.8542 61.979Z" fill="#FFD400"/>
<path d="M3.72803 34.0844V31.6147H4.18687V33.6886H5.46845V34.0686H3.72803V34.0844Z" fill="#FFD400"/>
<path d="M6.15248 31.8996C6.07337 31.8996 6.01007 31.8679 5.94679 31.8204C5.89932 31.7729 5.86768 31.7096 5.86768 31.6304C5.86768 31.5513 5.89932 31.488 5.94679 31.4405C5.99425 31.393 6.07337 31.3613 6.15248 31.3613C6.23159 31.3613 6.29488 31.393 6.35816 31.4405C6.40563 31.488 6.43727 31.5513 6.43727 31.6146C6.43727 31.6938 6.40563 31.7571 6.35816 31.8046C6.3107 31.8679 6.23159 31.8996 6.15248 31.8996ZM5.93097 34.0843V32.2004H6.37398V34.0843H5.93097Z" fill="#FFD400"/>
<path d="M7.59305 34.0846L6.78613 32.2007H7.24496L7.94114 33.8629H7.71962L8.43161 32.2007H8.85881L8.05189 34.0846H7.59305Z" fill="#FFD400"/>
<path d="M10.0901 34.1004C9.88446 34.1004 9.6946 34.0529 9.53638 33.9737C9.37816 33.8946 9.2674 33.7838 9.17247 33.6254C9.09336 33.483 9.0459 33.3088 9.0459 33.1347C9.0459 32.9447 9.09336 32.7864 9.17247 32.6439C9.25158 32.5014 9.37816 32.3906 9.52056 32.3115C9.66296 32.2323 9.837 32.1848 10.0269 32.1848C10.2167 32.1848 10.3749 32.2323 10.5173 32.3115C10.6597 32.3906 10.7705 32.5014 10.8496 32.6439C10.9287 32.7864 10.9762 32.9605 10.9762 33.1505C10.9762 33.1663 10.9762 33.198 10.9762 33.2138C10.9762 33.2297 10.9762 33.2613 10.9762 33.2772H9.4098V32.9922H10.7389L10.5648 33.0872C10.5648 32.9764 10.549 32.8814 10.5015 32.8022C10.4541 32.7231 10.3908 32.6597 10.3117 32.6123C10.2325 32.5648 10.1376 32.5489 10.0269 32.5489C9.91611 32.5489 9.82117 32.5648 9.74206 32.6123C9.66295 32.6597 9.59967 32.7231 9.5522 32.8022C9.50474 32.8814 9.48891 32.9764 9.48891 33.103V33.1663C9.48891 33.2772 9.52056 33.3721 9.56802 33.4671C9.61549 33.5463 9.6946 33.6254 9.78953 33.6729C9.88447 33.7204 9.99522 33.7363 10.106 33.7363C10.2167 33.7363 10.3117 33.7204 10.3908 33.6888C10.4699 33.6571 10.549 33.6096 10.6123 33.5305L10.8496 33.7996C10.7705 33.8946 10.6597 33.9737 10.5332 34.0212C10.4066 34.0845 10.2484 34.1004 10.0901 34.1004Z" fill="#FFD400"/>
<path d="M68.979 29.2875V26.8179H69.4378V28.8917H70.7194V29.2717H68.979V29.2875Z" fill="#FFD400"/>
<path d="M71.3983 27.103C71.3192 27.103 71.2559 27.0713 71.1926 27.0238C71.1452 26.9763 71.1135 26.913 71.1135 26.8338C71.1135 26.7547 71.1452 26.6913 71.1926 26.6439C71.2401 26.5964 71.3192 26.5647 71.3983 26.5647C71.4774 26.5647 71.5407 26.5964 71.604 26.6439C71.6515 26.6913 71.6831 26.7547 71.6831 26.818C71.6831 26.8972 71.6515 26.9605 71.604 27.008C71.5565 27.0713 71.4933 27.103 71.3983 27.103ZM71.1768 29.2876V27.4038H71.6198V29.2876H71.1768Z" fill="#FFD400"/>
<path d="M72.8389 29.2877L72.032 27.4038H72.4908L73.187 29.0661H72.9655L73.6775 27.4038H74.1047L73.2977 29.2877H72.8389Z" fill="#FFD400"/>
<path d="M75.3411 29.3194C75.1354 29.3194 74.9456 29.2719 74.7874 29.1927C74.6291 29.1136 74.5184 29.0027 74.4235 28.8444C74.3443 28.702 74.2969 28.5278 74.2969 28.3537C74.2969 28.1637 74.3443 28.0054 74.4235 27.8629C74.5026 27.7204 74.6291 27.6096 74.7715 27.5305C74.9139 27.4513 75.088 27.4038 75.2778 27.4038C75.4677 27.4038 75.6259 27.4513 75.7683 27.5305C75.9107 27.6096 76.0215 27.7204 76.1006 27.8629C76.1797 28.0054 76.2272 28.1795 76.2272 28.3695C76.2272 28.3853 76.2272 28.417 76.2272 28.4328C76.2272 28.4487 76.2272 28.4803 76.2272 28.4961H74.6608V28.2112H75.9898L75.8158 28.3062C75.8158 28.1954 75.8 28.1004 75.7525 28.0212C75.705 27.9421 75.6417 27.8787 75.5626 27.8312C75.4835 27.7837 75.3886 27.7679 75.2778 27.7679C75.1671 27.7679 75.0722 27.7837 74.993 27.8312C74.9139 27.8787 74.8507 27.9421 74.8032 28.0212C74.7557 28.1004 74.7399 28.1954 74.7399 28.322V28.3853C74.7399 28.4961 74.7715 28.5911 74.819 28.6861C74.8665 28.7653 74.9456 28.8444 75.0405 28.8919C75.1355 28.9394 75.2462 28.9552 75.357 28.9552C75.4677 28.9552 75.5626 28.9394 75.6417 28.9078C75.7209 28.8761 75.8 28.8286 75.8633 28.7494L76.1006 29.0186C76.0215 29.1136 75.9107 29.1927 75.7841 29.2402C75.6576 29.2877 75.5152 29.3194 75.3411 29.3194Z" fill="#FFD400"/>
<path d="M37.9525 40.3061H37.4937V37.8364H37.9525V40.3061ZM39.2657 39.2454H37.9208V38.8496H39.2657V39.2454ZM39.2183 37.8523H39.6771V40.3219H39.2183V37.8523Z" fill="#FFD400"/>
<path d="M41.3245 40.3377C41.1188 40.3377 40.929 40.2902 40.7708 40.211C40.6125 40.1319 40.5018 40.0211 40.4069 39.8627C40.3277 39.7203 40.2803 39.5461 40.2803 39.372C40.2803 39.182 40.3277 39.0237 40.4069 38.8812C40.486 38.7387 40.6125 38.6279 40.7549 38.5488C40.8973 38.4696 41.0714 38.4221 41.2612 38.4221C41.4511 38.4221 41.6093 38.4696 41.7517 38.5488C41.8941 38.6279 42.0049 38.7387 42.084 38.8812C42.1631 39.0237 42.2106 39.1978 42.2106 39.3878C42.2106 39.4036 42.2106 39.4353 42.2106 39.4511C42.2106 39.467 42.2106 39.4986 42.2106 39.5145H40.6442V39.2295H41.9732L41.7992 39.3245C41.7992 39.2137 41.7834 39.1187 41.7359 39.0395C41.6884 38.9604 41.6251 38.8971 41.546 38.8496C41.4669 38.8021 41.372 38.7862 41.2612 38.7862C41.1505 38.7862 41.0556 38.8021 40.9764 38.8496C40.8973 38.8971 40.834 38.9604 40.7866 39.0395C40.7391 39.1187 40.7233 39.2137 40.7233 39.3403V39.4036C40.7233 39.5145 40.7549 39.6094 40.8024 39.7044C40.8499 39.7836 40.929 39.8627 41.0239 39.9102C41.1188 39.9577 41.2296 39.9736 41.3403 39.9736C41.4511 39.9736 41.546 39.9577 41.6251 39.9261C41.7043 39.8944 41.7834 39.8469 41.8467 39.7678L42.084 40.0369C42.0049 40.1319 41.8941 40.211 41.7675 40.2585C41.641 40.306 41.4827 40.3377 41.3245 40.3377Z" fill="#FFD400"/>
<path d="M42.7644 40.3062V37.6941H43.2074V40.3062H42.7644Z" fill="#FFD400"/>
<path d="M43.918 40.9867V38.4221H44.3293V38.8653L44.3135 39.3719L44.3452 39.8785V41.0025H43.918V40.9867ZM44.9622 40.3376C44.804 40.3376 44.6774 40.306 44.5508 40.2268C44.4243 40.1635 44.3293 40.0527 44.2502 39.9102C44.1711 39.7677 44.1395 39.5936 44.1395 39.3719C44.1395 39.1503 44.1711 38.9762 44.2502 38.8337C44.3293 38.6912 44.4243 38.5804 44.5508 38.5171C44.6774 38.4537 44.8198 38.4062 44.9781 38.4062C45.1679 38.4062 45.3261 38.4537 45.4685 38.5329C45.6109 38.6121 45.7217 38.7229 45.8008 38.8653C45.8799 39.0078 45.9274 39.182 45.9274 39.3719C45.9274 39.5619 45.8799 39.7361 45.8008 39.8785C45.7217 40.021 45.6109 40.1318 45.4685 40.211C45.3103 40.2901 45.1521 40.3376 44.9622 40.3376ZM44.9148 39.9577C45.0255 39.9577 45.1204 39.9419 45.1995 39.8944C45.2787 39.8469 45.342 39.7835 45.4052 39.6886C45.4527 39.5936 45.4843 39.4986 45.4843 39.3719C45.4843 39.2453 45.4527 39.1503 45.4052 39.0553C45.3578 38.9603 45.2945 38.897 45.1995 38.8495C45.1204 38.802 45.0255 38.7862 44.9148 38.7862C44.804 38.7862 44.7091 38.802 44.63 38.8495C44.5508 38.897 44.4717 38.9603 44.4243 39.0553C44.3768 39.1503 44.3452 39.2453 44.3452 39.3719C44.3452 39.4986 44.3768 39.5936 44.4243 39.6886C44.4717 39.7835 44.535 39.8469 44.63 39.8944C44.7091 39.926 44.804 39.9577 44.9148 39.9577Z" fill="#FFD400"/>
</svg>
