<svg width="24" height="25" viewBox="0 0 24 25" fill="none" xmlns="http://www.w3.org/2000/svg">
<path d="M17.0499 20.9944C16.0699 21.9444 14.9999 21.7944 13.9699 21.3444C12.8799 20.8844 11.8799 20.8644 10.7299 21.3444C9.28992 21.9644 8.52992 21.7844 7.66992 20.9944C2.78992 15.9644 3.50992 8.30436 9.04992 8.02436C10.3999 8.09436 11.3399 8.76436 12.1299 8.82436C13.3099 8.58436 14.4399 7.89436 15.6999 7.98436C17.2099 8.10436 18.3499 8.70436 19.0999 9.78436C15.9799 11.6544 16.7199 15.7644 19.5799 16.9144C19.0099 18.4144 18.2699 19.9044 17.0399 21.0044L17.0499 20.9944ZM12.0299 7.96436C11.8799 5.73436 13.6899 3.89436 15.7699 3.71436C16.0599 6.29436 13.4299 8.21436 12.0299 7.96436Z" fill="white"/>
</svg>
