<svg width="24" height="24" viewBox="0 0 24 24" fill="none" xmlns="http://www.w3.org/2000/svg">
<path d="M20 9.99979C20 9.73457 19.8946 9.48022 19.7071 9.29268C19.5195 9.10514 19.2652 8.99979 19 8.99979C18.7347 8.99979 18.4804 9.10514 18.2929 9.29268C18.1053 9.48022 18 9.73457 18 9.99979H20ZM5.99996 9.99979C5.99996 9.73457 5.8946 9.48022 5.70707 9.29268C5.51953 9.10514 5.26518 8.99979 4.99996 8.99979C4.73474 8.99979 4.48039 9.10514 4.29285 9.29268C4.10532 9.48022 3.99996 9.73457 3.99996 9.99979H5.99996ZM20.293 12.7068C20.4816 12.8889 20.7342 12.9897 20.9964 12.9875C21.2586 12.9852 21.5094 12.88 21.6948 12.6946C21.8802 12.5092 21.9854 12.2584 21.9876 11.9962C21.9899 11.734 21.8891 11.4814 21.707 11.2928L20.293 12.7068ZM12 2.99979L12.707 2.29279C12.5194 2.10532 12.2651 2 12 2C11.7348 2 11.4805 2.10532 11.293 2.29279L12 2.99979ZM2.29296 11.2928C2.19745 11.385 2.12127 11.4954 2.06886 11.6174C2.01645 11.7394 1.98886 11.8706 1.98771 12.0034C1.98655 12.1362 2.01186 12.2678 2.06214 12.3907C2.11242 12.5136 2.18667 12.6253 2.28056 12.7192C2.37446 12.8131 2.48611 12.8873 2.60901 12.9376C2.7319 12.9879 2.86358 13.0132 2.99636 13.012C3.12914 13.0109 3.26036 12.9833 3.38236 12.9309C3.50437 12.8785 3.61471 12.8023 3.70696 12.7068L2.29296 11.2928ZM6.99996 21.9998H17V19.9998H6.99996V21.9998ZM20 18.9998V9.99979H18V18.9998H20ZM5.99996 18.9998V9.99979H3.99996V18.9998H5.99996ZM21.707 11.2928L12.707 2.29279L11.293 3.70679L20.293 12.7068L21.707 11.2928ZM11.293 2.29279L2.29296 11.2928L3.70696 12.7068L12.707 3.70679L11.293 2.29279ZM17 21.9998C17.7956 21.9998 18.5587 21.6837 19.1213 21.1211C19.6839 20.5585 20 19.7954 20 18.9998H18C18 19.265 17.8946 19.5194 17.7071 19.7069C17.5195 19.8944 17.2652 19.9998 17 19.9998V21.9998ZM6.99996 19.9998C6.73474 19.9998 6.48039 19.8944 6.29285 19.7069C6.10532 19.5194 5.99996 19.265 5.99996 18.9998H3.99996C3.99996 19.7954 4.31603 20.5585 4.87864 21.1211C5.44125 21.6837 6.20431 21.9998 6.99996 21.9998V19.9998Z" fill="#333C4A"/>
</svg>
