<svg width="20" height="20" viewBox="0 0 20 20" fill="none" xmlns="http://www.w3.org/2000/svg">
<path d="M2.5 17.502V13.9603L13.5 2.98112C13.6667 2.82834 13.8508 2.71029 14.0525 2.62695C14.2542 2.54362 14.4658 2.50195 14.6875 2.50195C14.9092 2.50195 15.1244 2.54362 15.3333 2.62695C15.5422 2.71029 15.7228 2.83529 15.875 3.00195L17.0208 4.16862C17.1875 4.3214 17.3092 4.50195 17.3858 4.71029C17.4625 4.91862 17.5006 5.12695 17.5 5.33529C17.5 5.55751 17.4619 5.76945 17.3858 5.97112C17.3097 6.17279 17.1881 6.35668 17.0208 6.52279L6.04167 17.502H2.5ZM14.6667 6.50195L15.8333 5.33529L14.6667 4.16862L13.5 5.33529L14.6667 6.50195Z" fill="#CA8B06"/>
</svg>
