<svg width="20" height="21" viewBox="0 0 20 21" fill="none" xmlns="http://www.w3.org/2000/svg">
<path d="M14.1666 18.8337C13.4722 18.8337 12.8819 18.5906 12.3958 18.1045C11.9097 17.6184 11.6666 17.0281 11.6666 16.3337C11.6666 16.2503 11.6875 16.0559 11.7291 15.7503L5.87496 12.3337C5.65274 12.542 5.39579 12.7053 5.10413 12.8237C4.81246 12.942 4.49996 13.0009 4.16663 13.0003C3.47218 13.0003 2.8819 12.7573 2.39579 12.2712C1.90968 11.785 1.66663 11.1948 1.66663 10.5003C1.66663 9.80588 1.90968 9.2156 2.39579 8.72949C2.8819 8.24338 3.47218 8.00033 4.16663 8.00033C4.49996 8.00033 4.81246 8.05949 5.10413 8.17783C5.39579 8.29616 5.65274 8.45921 5.87496 8.66699L11.7291 5.25033C11.7013 5.1531 11.6841 5.05949 11.6775 4.96949C11.6708 4.87949 11.6672 4.77866 11.6666 4.66699C11.6666 3.97255 11.9097 3.38227 12.3958 2.89616C12.8819 2.41005 13.4722 2.16699 14.1666 2.16699C14.8611 2.16699 15.4513 2.41005 15.9375 2.89616C16.4236 3.38227 16.6666 3.97255 16.6666 4.66699C16.6666 5.36144 16.4236 5.95171 15.9375 6.43783C15.4513 6.92394 14.8611 7.16699 14.1666 7.16699C13.8333 7.16699 13.5208 7.10783 13.2291 6.98949C12.9375 6.87116 12.6805 6.7081 12.4583 6.50033L6.60413 9.91699C6.6319 10.0142 6.6494 10.1081 6.65663 10.1987C6.66385 10.2892 6.66718 10.3898 6.66663 10.5003C6.66607 10.6109 6.66274 10.7117 6.65663 10.8028C6.65051 10.8939 6.63301 10.9875 6.60413 11.0837L12.4583 14.5003C12.6805 14.292 12.9375 14.1289 13.2291 14.0112C13.5208 13.8934 13.8333 13.8342 14.1666 13.8337C14.8611 13.8337 15.4513 14.0767 15.9375 14.5628C16.4236 15.0489 16.6666 15.6392 16.6666 16.3337C16.6666 17.0281 16.4236 17.6184 15.9375 18.1045C15.4513 18.5906 14.8611 18.8337 14.1666 18.8337Z" fill="#495664"/>
</svg>
