<svg width="20" height="21" viewBox="0 0 20 21" fill="none" xmlns="http://www.w3.org/2000/svg">
<path d="M12.1666 7.22917C12.1666 6.63194 11.9688 6.15278 11.5733 5.79167C11.1777 5.43056 10.6533 5.25 9.99996 5.25C9.59718 5.25 9.23273 5.33694 8.90662 5.51083C8.58051 5.68472 8.29912 5.93806 8.06246 6.27083C7.84023 6.59028 7.53801 6.77444 7.15579 6.82333C6.77357 6.87222 6.44384 6.77139 6.16662 6.52083C5.97218 6.34028 5.86468 6.11806 5.84412 5.85417C5.82357 5.59028 5.8894 5.34028 6.04162 5.10417C6.48607 4.4375 7.05218 3.92028 7.73996 3.5525C8.42773 3.18472 9.18107 3.00056 9.99996 3C11.3472 3 12.4411 3.38194 13.2816 4.14583C14.1222 4.90972 14.5422 5.90972 14.5416 7.14583C14.5416 7.77083 14.4097 8.33333 14.1458 8.83333C13.8819 9.33333 13.3958 9.92361 12.6875 10.6042C12.1736 11.0903 11.8263 11.4689 11.6458 11.74C11.4652 12.0111 11.3472 12.32 11.2916 12.6667C11.2361 13 11.0936 13.2778 10.8641 13.5C10.6347 13.7222 10.3605 13.8333 10.0416 13.8333C9.72273 13.8333 9.44857 13.7258 9.21912 13.5108C8.98968 13.2958 8.87496 13.0283 8.87496 12.7083C8.87496 12.1667 8.99301 11.6703 9.22912 11.2192C9.46523 10.7681 9.86107 10.2922 10.4166 9.79167C11.125 9.16667 11.5938 8.68417 11.8233 8.34417C12.0527 8.00417 12.1672 7.6325 12.1666 7.22917ZM9.99996 18.8333C9.54162 18.8333 9.1494 18.6703 8.82329 18.3442C8.49718 18.0181 8.33384 17.6256 8.33329 17.1667C8.33273 16.7078 8.49607 16.3156 8.82329 15.99C9.15051 15.6644 9.54273 15.5011 9.99996 15.5C10.4572 15.4989 10.8497 15.6622 11.1775 15.99C11.5052 16.3178 11.6683 16.71 11.6666 17.1667C11.665 17.6233 11.5019 18.0158 11.1775 18.3442C10.853 18.6725 10.4605 18.8356 9.99996 18.8333Z" fill="#495664"/>
</svg>
