<svg width="20" height="21" viewBox="0 0 20 21" fill="none" xmlns="http://www.w3.org/2000/svg">
<path d="M9.02082 18.8337C8.64582 18.8337 8.32304 18.7087 8.05248 18.4587C7.78193 18.2087 7.6186 17.9031 7.56248 17.542L7.37498 16.167C7.19443 16.0975 7.02443 16.0142 6.86498 15.917C6.70554 15.8198 6.54915 15.7156 6.39582 15.6045L5.10415 16.1462C4.75693 16.2989 4.40971 16.3128 4.06248 16.1878C3.71526 16.0628 3.44443 15.8406 3.24998 15.5212L2.27082 13.8128C2.07637 13.4934 2.02082 13.1531 2.10415 12.792C2.18748 12.4309 2.37498 12.1323 2.66665 11.8962L3.77082 11.0628C3.75693 10.9656 3.74998 10.8717 3.74998 10.7812V10.2187C3.74998 10.1287 3.75693 10.035 3.77082 9.93783L2.66665 9.10449C2.37498 8.86838 2.18748 8.56977 2.10415 8.20866C2.02082 7.84755 2.07637 7.50727 2.27082 7.18783L3.24998 5.47949C3.44443 5.16005 3.71526 4.93783 4.06248 4.81283C4.40971 4.68783 4.75693 4.70171 5.10415 4.85449L6.39582 5.39616C6.5486 5.28505 6.70832 5.18088 6.87498 5.08366C7.04165 4.98644 7.20832 4.9031 7.37498 4.83366L7.56248 3.45866C7.61804 3.09755 7.78137 2.79199 8.05248 2.54199C8.3236 2.29199 8.64637 2.16699 9.02082 2.16699H10.9792C11.3542 2.16699 11.6772 2.29199 11.9483 2.54199C12.2194 2.79199 12.3825 3.09755 12.4375 3.45866L12.625 4.83366C12.8055 4.9031 12.9758 4.98644 13.1358 5.08366C13.2958 5.18088 13.4519 5.28505 13.6042 5.39616L14.8958 4.85449C15.243 4.70171 15.5903 4.68783 15.9375 4.81283C16.2847 4.93783 16.5555 5.16005 16.75 5.47949L17.7292 7.18783C17.9236 7.50727 17.9792 7.84755 17.8958 8.20866C17.8125 8.56977 17.625 8.86838 17.3333 9.10449L16.2292 9.93783C16.243 10.035 16.25 10.1289 16.25 10.2195V10.7812C16.25 10.8717 16.2361 10.9656 16.2083 11.0628L17.3125 11.8962C17.6042 12.1323 17.7917 12.4309 17.875 12.792C17.9583 13.1531 17.9028 13.4934 17.7083 13.8128L16.7083 15.5212C16.5139 15.8406 16.243 16.0628 15.8958 16.1878C15.5486 16.3128 15.2014 16.2989 14.8542 16.1462L13.6042 15.6045C13.4514 15.7156 13.2917 15.8198 13.125 15.917C12.9583 16.0142 12.7916 16.0975 12.625 16.167L12.4375 17.542C12.3819 17.9031 12.2189 18.2087 11.9483 18.4587C11.6778 18.7087 11.3547 18.8337 10.9792 18.8337H9.02082ZM10.0417 13.417C10.8472 13.417 11.5347 13.1323 12.1041 12.5628C12.6736 11.9934 12.9583 11.3059 12.9583 10.5003C12.9583 9.69477 12.6736 9.00727 12.1041 8.43783C11.5347 7.86838 10.8472 7.58366 10.0417 7.58366C9.22221 7.58366 8.5311 7.86838 7.96832 8.43783C7.40554 9.00727 7.12443 9.69477 7.12498 10.5003C7.12554 11.3059 7.40693 11.9934 7.96915 12.5628C8.53137 13.1323 9.22221 13.417 10.0417 13.417Z" fill="#495664"/>
</svg>
