<svg width="25" height="24" viewBox="0 0 25 24" fill="none" xmlns="http://www.w3.org/2000/svg">
<path d="M12.75 21C10.45 21 8.446 20.2377 6.738 18.713C5.03 17.1883 4.05067 15.284 3.8 13H5.85C6.08333 14.7333 6.85433 16.1667 8.163 17.3C9.47167 18.4333 11.0007 19 12.75 19C14.7 19 16.3543 18.321 17.713 16.963C19.0717 15.605 19.7507 13.9507 19.75 12C19.7493 10.0493 19.0703 8.39533 17.713 7.038C16.3557 5.68067 14.7013 5.00133 12.75 5C11.6 5 10.525 5.26667 9.525 5.8C8.525 6.33333 7.68333 7.06667 7 8H9.75V10H3.75V4H5.75V6.35C6.6 5.28333 7.63767 4.45833 8.863 3.875C10.0883 3.29167 11.384 3 12.75 3C14 3 15.171 3.23767 16.263 3.713C17.355 4.18833 18.305 4.82967 19.113 5.637C19.921 6.44433 20.5627 7.39433 21.038 8.487C21.5133 9.57967 21.7507 10.7507 21.75 12C21.7493 13.2493 21.512 14.4203 21.038 15.513C20.564 16.6057 19.9223 17.5557 19.113 18.363C18.3037 19.1703 17.3537 19.812 16.263 20.288C15.1723 20.764 14.0013 21.0013 12.75 21ZM15.55 16.2L11.75 12.4V7H13.75V11.6L16.95 14.8L15.55 16.2Z" fill="#333C4A"/>
</svg>
