<svg width="20" height="21" viewBox="0 0 20 21" fill="none" xmlns="http://www.w3.org/2000/svg">
<g clip-path="url(#clip0_229_6239)">
<path d="M9.98677 1C8.7294 1 7.61064 1.84211 7.19481 3.10526H1.07628V5.21053H3.00688L0.0862239 12.5789C-0.379102 14.6842 1.07628 15.7368 3.55141 15.7368C6.02655 15.7368 7.57103 14.6842 7.0166 12.5789L4.09594 5.21053H7.18491C7.51163 6.10526 8.15517 6.78947 8.99671 7.13684V18.8947H0.0862239V21H19.8873V18.8947H10.9768V7.12632C11.8184 6.78947 12.4619 6.10526 12.7787 5.21053H15.8776L12.9569 12.5789C12.4916 14.6842 13.947 15.7368 16.4221 15.7368C18.8973 15.7368 20.4417 14.6842 19.8873 12.5789L16.9666 5.21053H18.8973V3.10526H12.7886C12.3629 1.84211 11.2441 1 9.98677 1ZM9.98677 3.10526C10.2493 3.10526 10.5012 3.21617 10.6868 3.41357C10.8725 3.61098 10.9768 3.87872 10.9768 4.15789C10.9768 4.43707 10.8725 4.70481 10.6868 4.90222C10.5012 5.09962 10.2493 5.21053 9.98677 5.21053C9.72419 5.21053 9.47236 5.09962 9.28669 4.90222C9.10102 4.70481 8.99671 4.43707 8.99671 4.15789C8.99671 3.87872 9.10102 3.61098 9.28669 3.41357C9.47236 3.21617 9.72419 3.10526 9.98677 3.10526ZM3.55141 8.63158L5.03649 12.5789H2.06633L3.55141 8.63158ZM16.4221 8.63158L17.9072 12.5789H14.937L16.4221 8.63158Z" fill="#495664"/>
</g>
<defs>
<clipPath id="clip0_229_6239">
<rect width="20" height="20" fill="white" transform="translate(0 0.5)"/>
</clipPath>
</defs>
</svg>
