<svg width="20" height="20" viewBox="0 0 20 20" fill="none" xmlns="http://www.w3.org/2000/svg">
<path d="M10 1.66699C6.33337 1.66699 3.33337 4.66699 3.33337 8.33366C3.33337 12.8337 9.16671 17.917 9.41671 18.167C9.58337 18.2503 9.83337 18.3337 10 18.3337C10.1667 18.3337 10.4167 18.2503 10.5834 18.167C10.8334 17.917 16.6667 12.8337 16.6667 8.33366C16.6667 4.66699 13.6667 1.66699 10 1.66699ZM10 16.417C8.25004 14.7503 5.00004 11.167 5.00004 8.33366C5.00004 5.58366 7.25004 3.33366 10 3.33366C12.75 3.33366 15 5.58366 15 8.33366C15 11.0837 11.75 14.7503 10 16.417ZM10 5.00033C8.16671 5.00033 6.66671 6.50033 6.66671 8.33366C6.66671 10.167 8.16671 11.667 10 11.667C11.8334 11.667 13.3334 10.167 13.3334 8.33366C13.3334 6.50033 11.8334 5.00033 10 5.00033ZM10 10.0003C9.08337 10.0003 8.33337 9.25033 8.33337 8.33366C8.33337 7.41699 9.08337 6.66699 10 6.66699C10.9167 6.66699 11.6667 7.41699 11.6667 8.33366C11.6667 9.25033 10.9167 10.0003 10 10.0003Z" fill="black"/>
</svg>
