<svg width="61" height="60" viewBox="0 0 61 60" fill="none" xmlns="http://www.w3.org/2000/svg">
<g clip-path="url(#clip0_226_4302)">
<path d="M48.725 43.225L45.5 40V27.5C45.5 19.825 41.4 13.4 34.25 11.7V10C34.25 7.925 32.575 6.25 30.5 6.25C28.425 6.25 26.75 7.925 26.75 10V11.7C19.575 13.4 15.5 19.8 15.5 27.5V40L12.275 43.225C10.7 44.8 11.8 47.5 14.025 47.5H46.95C49.2 47.5 50.3 44.8 48.725 43.225ZM40.5 42.5H20.5V27.5C20.5 21.3 24.275 16.25 30.5 16.25C36.725 16.25 40.5 21.3 40.5 27.5V42.5ZM30.5 55C33.25 55 35.5 52.75 35.5 50H25.5C25.5 52.75 27.725 55 30.5 55Z" fill="#FDE047"/>
</g>
<defs>
<clipPath id="clip0_226_4302">
<rect width="60" height="60" fill="white" transform="translate(0.5)"/>
</clipPath>
</defs>
</svg>
