<svg width="244" height="228" viewBox="0 0 244 228" fill="none" xmlns="http://www.w3.org/2000/svg">
<path d="M74.2675 13.5369L51.5079 21.6875L64.1096 60.0565L86.8691 51.9059L74.2675 13.5369Z" fill="#FFD400"/>
<path d="M55.7629 40.3867L49.5475 42.6125L50.8014 46.4304L57.0168 44.2045L55.7629 40.3867Z" fill="#FFD400"/>
<path d="M65.0785 14.2696L63.6365 9.87915L59.9803 11.1885L61.4223 15.579L65.0785 14.2696Z" fill="#FFD400"/>
<path d="M82.5682 33.2351L88.7837 31.0093L87.5298 27.1915L81.3143 29.4173L82.5682 33.2351Z" fill="#FFD400"/>
<path d="M16.2432 43.1496L4.87329 47.4077L8.86959 59.0429L20.2395 54.7847L16.2432 43.1496Z" fill="#FFD400"/>
<path d="M20.7897 56.3683L9.4198 60.6265L13.4161 72.2616L24.786 68.0035L20.7897 56.3683Z" fill="#FFD400"/>
<path d="M30.2577 38.0934L18.8878 42.3516L22.8841 53.9867L34.254 49.7286L30.2577 38.0934Z" fill="#FFD400"/>
<path d="M34.7952 51.3136L23.4253 55.5718L27.4216 67.2069L38.7915 62.9488L34.7952 51.3136Z" fill="#FFD400"/>
<path d="M44.2159 33.0548L32.8459 37.313L36.8422 48.9482L48.2122 44.69L44.2159 33.0548Z" fill="#FFD400"/>
<path d="M48.7759 46.2751L37.406 50.5332L41.4023 62.1684L52.7722 57.9102L48.7759 46.2751Z" fill="#FFD400"/>
<path d="M122.097 30.5033L133.467 26.2451L129.471 14.6099L118.101 18.8681L122.097 30.5033Z" fill="#FFD400"/>
<path d="M117.558 17.2733L128.927 13.0151L124.931 1.37996L113.561 5.63811L117.558 17.2733Z" fill="#FFD400"/>
<path d="M108.137 35.5511L119.507 31.293L115.511 19.6578L104.141 23.9159L108.137 35.5511Z" fill="#FFD400"/>
<path d="M103.595 22.3214L114.965 18.0632L110.969 6.42806L99.5986 10.6862L103.595 22.3214Z" fill="#FFD400"/>
<path d="M94.1472 40.6163L105.517 36.3582L101.521 24.723L90.1509 28.9811L94.1472 40.6163Z" fill="#FFD400"/>
<path d="M89.6008 27.3863L100.971 23.1282L96.9744 11.493L85.6045 15.7512L89.6008 27.3863Z" fill="#FFD400"/>
<path d="M59.4246 8.77867C61.7461 8.77867 63.628 6.81349 63.628 4.38933C63.628 1.96517 61.7461 0 59.4246 0C57.103 0 55.2211 1.96517 55.2211 4.38933C55.2211 6.81349 57.103 8.77867 59.4246 8.77867Z" fill="#FFD400"/>
<path d="M65.5654 82.1365L67.4981 77.6968C78.4658 82.8429 91.3661 77.6968 96.2943 66.2441L100.546 68.2622C94.5549 82.1365 78.9006 88.3421 65.5654 82.1365Z" fill="#FFD400"/>
<path d="M69.7688 72.3485L71.7014 67.9087C77.4993 70.6331 84.3602 67.9087 86.9692 61.8545L91.221 63.8726C87.549 72.3485 77.9342 76.1829 69.7688 72.3485Z" fill="#FFD400"/>
<path d="M73.9651 62.561L75.8977 58.1212C76.5258 58.4239 77.2989 58.1212 77.5888 57.4653L81.8406 59.4834C80.4878 62.561 76.9607 63.9736 73.9651 62.561Z" fill="#FFD400"/>
<path d="M20.4741 115.131C14.0481 115.081 8.68506 120.58 8.68506 127.341C8.68506 128.299 8.78168 129.207 8.97494 130.115C9.16821 130.923 9.40978 131.679 9.69968 132.386C10.0862 133.294 10.6177 134.202 11.1975 134.959L19.6044 149.287C19.9426 149.842 20.6674 149.842 21.0056 149.287L29.4126 134.959C29.9924 134.152 30.5238 133.294 30.9104 132.386C31.2002 131.679 31.4901 130.923 31.6351 130.115C31.8284 129.207 31.925 128.299 31.925 127.341C32.0216 120.63 26.8518 115.232 20.4741 115.131ZM28.5912 129.359C28.4462 129.914 28.3013 130.469 28.0597 131.024C27.7698 131.679 27.3833 132.335 26.9484 132.89C25.4023 134.908 23.0349 136.22 20.3292 136.22C17.6718 136.22 15.256 134.908 13.7099 132.89C13.2751 132.335 12.8885 131.679 12.5986 131.024C12.3571 130.519 12.2121 129.964 12.0672 129.359C11.9222 128.703 11.8739 128.047 11.8739 127.341C11.8739 122.447 15.6425 118.511 20.3292 118.511C25.0158 118.511 28.7844 122.447 28.7844 127.341C28.7844 128.047 28.7361 128.703 28.5912 129.359Z" fill="#FFD400"/>
<path d="M222.205 97.8778C215.779 97.8273 210.416 103.327 210.416 110.087C210.416 111.046 210.512 111.954 210.705 112.862C210.899 113.669 211.14 114.426 211.43 115.132C211.817 116.041 212.348 116.949 212.928 117.705L221.335 132.034C221.673 132.589 222.398 132.589 222.736 132.034L231.191 117.655C231.771 116.848 232.303 115.99 232.689 115.082C232.979 114.376 233.269 113.619 233.414 112.812C233.607 111.903 233.704 110.995 233.704 110.037C233.752 103.377 228.582 97.9787 222.205 97.8778ZM230.322 112.055C230.177 112.61 230.032 113.165 229.79 113.72C229.5 114.376 229.114 115.031 228.679 115.586C227.133 117.605 224.765 118.916 222.06 118.916C219.354 118.916 216.986 117.605 215.44 115.586C215.006 115.031 214.619 114.376 214.329 113.72C214.088 113.215 213.943 112.66 213.798 112.055C213.653 111.399 213.604 110.743 213.604 110.037C213.604 105.143 217.373 101.208 222.06 101.208C226.746 101.208 230.515 105.143 230.515 110.037C230.563 110.743 230.467 111.449 230.322 112.055Z" fill="#FFD400"/>
<path d="M127.176 171.587C136.409 171.587 143.893 163.772 143.893 154.131C143.893 144.49 136.409 136.675 127.176 136.675C117.943 136.675 110.459 144.49 110.459 154.131C110.459 163.772 117.943 171.587 127.176 171.587Z" fill="#FFD400"/>
<path d="M127.154 166.694C128.648 166.694 129.86 165.429 129.86 163.869C129.86 162.308 128.648 161.043 127.154 161.043C125.66 161.043 124.448 162.308 124.448 163.869C124.448 165.429 125.66 166.694 127.154 166.694Z" fill="black"/>
<path d="M127.177 141.82C125.679 141.82 124.52 143.132 124.616 144.696L125.534 157.107C125.583 158.015 126.308 158.671 127.177 158.671C128.047 158.671 128.772 157.965 128.82 157.107L129.738 144.696C129.883 143.132 128.675 141.82 127.177 141.82Z" fill="black"/>
<path d="M15.401 200.547C14.5796 199.538 13.7099 198.428 12.8885 197.217L14.7729 195.754C15.5942 196.914 16.4156 197.974 17.1886 198.932L15.401 200.547Z" fill="#FFD400"/>
<path d="M101.268 227.337C98.804 227.337 96.5814 226.883 94.6005 225.924L95.5668 223.704C97.2095 224.511 99.0455 224.915 101.22 224.915C101.8 224.915 102.476 224.865 103.104 224.814L103.297 227.236C102.669 227.286 101.944 227.337 101.268 227.337ZM88.1262 219.617C86.5801 217.044 85.4205 214.068 84.5025 211.495L86.725 210.637C87.5947 213.109 88.6576 215.935 90.1554 218.306L88.1262 219.617ZM29.9056 210.183C27.1515 210.133 24.4459 209.023 21.5952 206.803L22.9964 204.835C25.4605 206.752 27.7313 207.66 29.9539 207.711L29.9056 210.183ZM38.3125 207.055L36.9597 205.037C39.0856 203.473 41.1631 201.404 43.0958 199.437L44.7385 201.203C42.7575 203.221 40.5833 205.39 38.3125 207.055ZM81.6518 203.271C80.4439 200.042 79.2844 197.671 78.0281 195.703L79.9608 194.341C81.3136 196.41 82.5698 198.983 83.826 202.363L81.6518 203.271ZM50.778 195.199L49.2319 193.332C51.7926 191.011 54.0635 189.397 56.3343 188.236L57.349 190.456C55.2714 191.516 53.1455 193.029 50.778 195.199ZM72.3752 190.305C70.7808 189.447 68.9931 188.892 67.0121 188.64C66.3357 188.539 65.6593 188.539 64.9829 188.539H64.8862V186.067H64.9829C65.7559 186.067 66.529 186.117 67.2537 186.218C69.5246 186.471 71.6021 187.126 73.4381 188.135L72.3752 190.305Z" fill="#FFD400"/>
<path d="M111.899 225.168L111.126 222.847C112.285 222.443 113.493 221.939 114.798 221.384L115.716 223.654C114.411 224.209 113.107 224.714 111.899 225.168Z" fill="#FFD400"/>
<path d="M142.722 225.067C141.466 224.764 140.113 224.411 138.76 223.957L139.485 221.636C140.741 222.039 141.997 222.393 143.205 222.695L142.722 225.067Z" fill="#FFD400"/>
<path d="M151.082 225.672L150.889 223.2C153.45 222.948 155.865 222.292 158.136 221.081L159.199 223.301C156.59 224.613 153.981 225.42 151.082 225.672ZM165.963 218.205L164.321 216.44C165.963 214.825 167.606 212.857 169.539 210.284L171.375 211.798C169.394 214.472 167.654 216.49 165.963 218.205ZM217.275 205.239C216.115 205.239 215.004 205.088 213.893 204.785L214.473 202.414C215.922 202.767 217.42 202.868 218.966 202.666C219.884 202.515 220.802 202.313 221.672 201.96L222.493 204.23C221.478 204.634 220.367 204.936 219.256 205.088C218.579 205.189 217.903 205.239 217.275 205.239ZM176.255 205.037L174.37 203.574C175.868 201.506 177.656 199.084 179.54 196.965L181.28 198.63C179.444 200.648 177.704 203.019 176.255 205.037ZM206.452 200.547C205.293 199.538 204.181 198.428 203.118 197.419C202.2 196.511 201.379 195.704 200.461 194.896L202.007 193.03C202.925 193.837 203.843 194.745 204.713 195.603C205.776 196.612 206.839 197.671 207.95 198.63L206.452 200.547ZM229.257 198.68L227.325 197.268C228.677 195.3 229.644 192.878 230.272 190.053L232.591 190.558C231.915 193.686 230.803 196.41 229.257 198.68ZM187.126 193.534L185.966 191.415C187.851 190.305 189.735 189.549 191.764 189.195C192.585 189.044 193.455 188.994 194.277 189.044L194.083 191.516C193.455 191.466 192.827 191.516 192.199 191.617C190.411 191.92 188.769 192.525 187.126 193.534Z" fill="#FFD400"/>
<path d="M230.911 181.88C230.863 180.568 230.767 179.206 230.622 177.844L232.941 177.541C233.134 179.004 233.231 180.417 233.279 181.779L230.911 181.88Z" fill="#FFD400"/>
<path d="M21.0174 192.777C20.0028 192.777 19.1814 191.97 19.0365 190.961L18.1668 183.797L14.9296 180.568C14.8813 180.517 14.7846 180.467 14.6397 180.467C14.4948 180.467 14.3981 180.517 14.3015 180.669L11.016 186.067H1.88433C0.869697 186.067 0 185.209 0 184.1C0 183.04 0.821382 182.132 1.88433 182.132H8.93844L15.0746 166.643H12.8037C12.5621 166.643 12.3205 166.795 12.2239 167.047L10.8228 170.629C10.5329 171.335 9.90475 171.789 9.18001 171.789C8.98675 171.789 8.84182 171.739 8.64855 171.688C8.16539 171.537 7.77886 171.184 7.5856 170.679C7.39233 170.225 7.39233 169.67 7.5856 169.166L9.71148 164.07C10.0497 163.212 10.8711 162.657 11.7891 162.657H19.4713C20.0028 162.657 20.5342 162.96 20.8241 163.465L23.6748 168.56L29.0862 167.652C29.1828 167.652 29.2794 167.652 29.376 167.652C30.1974 167.652 30.9221 168.258 31.0671 169.115C31.2604 170.074 30.6323 171.032 29.7143 171.234L22.032 172.849L20.5342 170.831L18.1185 176.935C17.9252 177.44 18.0218 178.045 18.4083 178.499L21.5006 181.981C21.8388 182.334 22.032 182.788 22.0804 183.292L22.9983 190.507C23.095 191.112 22.9017 191.718 22.5152 192.172C22.177 192.525 21.5972 192.777 21.0174 192.777Z" fill="#FFD400"/>
<path d="M21.8876 162.355C23.9156 162.355 25.5596 160.639 25.5596 158.521C25.5596 156.403 23.9156 154.687 21.8876 154.687C19.8596 154.687 18.2156 156.403 18.2156 158.521C18.2156 160.639 19.8596 162.355 21.8876 162.355Z" fill="#FFD400"/>
<path d="M222.982 174.716C223.997 174.716 224.818 173.908 224.963 172.899L225.833 165.735L229.07 162.506C229.118 162.456 229.215 162.405 229.36 162.405C229.505 162.405 229.601 162.456 229.698 162.607L232.983 168.005H242.115C243.13 168.005 243.999 167.148 243.999 166.038C243.999 164.928 243.178 164.07 242.115 164.07H235.061L228.925 148.581H231.292C231.534 148.581 231.775 148.733 231.872 148.985L233.273 152.567C233.563 153.273 234.191 153.728 234.916 153.728C235.109 153.728 235.254 153.677 235.447 153.627C235.931 153.475 236.317 153.122 236.51 152.618C236.704 152.163 236.704 151.609 236.51 151.104L234.385 146.008C234.046 145.151 233.225 144.596 232.307 144.596H224.625C224.093 144.596 223.562 144.898 223.272 145.403L220.421 150.499L215.01 149.59C214.913 149.59 214.817 149.59 214.72 149.59C213.899 149.59 213.174 150.196 213.029 151.054C212.836 152.012 213.464 152.971 214.382 153.173L222.064 154.787L223.562 152.769L225.978 158.874C226.171 159.378 226.074 159.984 225.688 160.438L222.595 163.919C222.257 164.272 222.064 164.726 222.016 165.231L221.098 172.445C221.001 173.051 221.194 173.656 221.581 174.11C221.822 174.463 222.402 174.716 222.982 174.716Z" fill="#FFD400"/>
<path d="M222.116 144.343C224.144 144.343 225.788 142.627 225.788 140.509C225.788 138.391 224.144 136.675 222.116 136.675C220.088 136.675 218.444 138.391 218.444 140.509C218.444 142.627 220.088 144.343 222.116 144.343Z" fill="#FFD400"/>
<path d="M127.31 187.379C130.165 187.379 132.48 184.962 132.48 181.981C132.48 178.999 130.165 176.583 127.31 176.583C124.455 176.583 122.14 178.999 122.14 181.981C122.14 184.962 124.455 187.379 127.31 187.379Z" fill="#FFD400"/>
<path d="M132.243 197.521C132.291 197.521 132.291 197.521 132.243 197.521C133.065 199.185 134.562 202.414 135.529 204.432C136.012 205.391 137.123 205.795 138.089 205.341C139.007 204.836 139.394 203.676 138.959 202.667L134.659 193.535L133.209 190.407C132.63 189.196 131.47 188.439 130.214 188.439H127.218H124.223C122.966 188.439 121.807 189.196 121.227 190.407L119.778 193.535L115.478 202.667C114.994 203.625 115.381 204.836 116.347 205.341C117.265 205.845 118.425 205.442 118.908 204.432C119.874 202.414 121.372 199.185 122.193 197.521L118.328 210.386C117.893 211.496 118.618 212.707 119.778 212.707H121.952C122.097 212.707 122.242 212.808 122.242 213.009V223.251C122.242 224.613 123.305 225.723 124.609 225.723C125.914 225.723 126.977 224.613 126.977 223.251V212.908C126.977 212.808 127.073 212.707 127.17 212.707H127.412C127.508 212.707 127.605 212.808 127.605 212.908V223.251C127.605 224.613 128.668 225.723 129.972 225.723C131.277 225.723 132.34 224.613 132.34 223.251V213.009C132.34 212.858 132.436 212.707 132.63 212.707H134.804C135.915 212.707 136.688 211.496 136.253 210.386L132.243 197.521Z" fill="#FFD400"/>
<path d="M9.70532 108.623V100.752H11.1065V107.362H15.0201V108.573H9.70532V108.623Z" fill="#FFD400"/>
<path d="M17.1114 101.661C16.8698 101.661 16.6765 101.56 16.4833 101.409C16.3383 101.258 16.2417 101.056 16.2417 100.803C16.2417 100.551 16.3383 100.349 16.4833 100.198C16.6282 100.047 16.8698 99.9458 17.1114 99.9458C17.353 99.9458 17.5462 100.047 17.7395 100.198C17.8845 100.349 17.9811 100.551 17.9811 100.753C17.9811 101.005 17.8845 101.207 17.7395 101.358C17.5946 101.56 17.353 101.661 17.1114 101.661ZM16.435 108.624V102.62H17.7878V108.624H16.435Z" fill="#FFD400"/>
<path d="M21.5041 108.624L19.04 102.62H20.4412L22.5671 107.917H21.8907L24.0649 102.62H25.3694L22.9053 108.624H21.5041Z" fill="#FFD400"/>
<path d="M29.1356 108.674C28.5075 108.674 27.9277 108.523 27.4446 108.27C26.9614 108.018 26.6232 107.665 26.3333 107.16C26.0917 106.706 25.9468 106.151 25.9468 105.596C25.9468 104.991 26.0917 104.487 26.3333 104.032C26.5749 103.578 26.9614 103.225 27.3963 102.973C27.8311 102.721 28.3626 102.569 28.9424 102.569C29.5222 102.569 30.0053 102.721 30.4401 102.973C30.875 103.225 31.2132 103.578 31.4548 104.032C31.6963 104.487 31.8413 105.042 31.8413 105.647C31.8413 105.697 31.8413 105.798 31.8413 105.849C31.8413 105.899 31.8413 106 31.8413 106.051H27.058V105.142H31.1166L30.5851 105.445C30.5851 105.092 30.5368 104.789 30.3918 104.537C30.2469 104.285 30.0536 104.083 29.812 103.932C29.5705 103.78 29.2806 103.73 28.9424 103.73C28.6042 103.73 28.3142 103.78 28.0727 103.932C27.8311 104.083 27.6378 104.285 27.4929 104.537C27.3479 104.789 27.2996 105.092 27.2996 105.496V105.697C27.2996 106.051 27.3962 106.353 27.5412 106.656C27.6861 106.908 27.9277 107.16 28.2176 107.312C28.5075 107.463 28.8457 107.514 29.1839 107.514C29.5222 107.514 29.812 107.463 30.0536 107.362C30.2952 107.261 30.5368 107.11 30.73 106.858L31.4548 107.715C31.2132 108.018 30.875 108.27 30.4885 108.422C30.1019 108.624 29.6188 108.674 29.1356 108.674Z" fill="#FFD400"/>
<path d="M208.962 93.3358V85.4653H210.364V92.0745H214.277V93.2854H208.962V93.3358Z" fill="#FFD400"/>
<path d="M216.353 86.3738C216.111 86.3738 215.918 86.2729 215.724 86.1216C215.58 85.9702 215.483 85.7684 215.483 85.5161C215.483 85.2639 215.58 85.0621 215.724 84.9107C215.869 84.7594 216.111 84.6584 216.353 84.6584C216.594 84.6584 216.787 84.7594 216.981 84.9107C217.126 85.0621 217.222 85.2639 217.222 85.4657C217.222 85.718 217.126 85.9198 216.981 86.0711C216.836 86.2729 216.643 86.3738 216.353 86.3738ZM215.676 93.3362V87.3324H217.029V93.3362H215.676Z" fill="#FFD400"/>
<path d="M220.748 93.3363L218.283 87.3325H219.685L221.81 92.63H221.134L223.308 87.3325H224.613L222.149 93.3363H220.748Z" fill="#FFD400"/>
<path d="M228.39 93.4372C227.762 93.4372 227.183 93.2859 226.699 93.0336C226.216 92.7813 225.878 92.4282 225.588 91.9236C225.347 91.4696 225.202 90.9146 225.202 90.3596C225.202 89.7542 225.347 89.2497 225.588 88.7956C225.83 88.3415 226.216 87.9884 226.651 87.7361C227.086 87.4839 227.617 87.3325 228.197 87.3325C228.777 87.3325 229.26 87.4839 229.695 87.7361C230.13 87.9884 230.468 88.3415 230.71 88.7956C230.951 89.2497 231.096 89.8047 231.096 90.4101C231.096 90.4605 231.096 90.5614 231.096 90.6119C231.096 90.6624 231.096 90.7632 231.096 90.8137H226.313V89.9056H230.371L229.84 90.2083C229.84 89.8551 229.792 89.5524 229.647 89.3001C229.502 89.0479 229.309 88.8461 229.067 88.6947C228.825 88.5433 228.535 88.4929 228.197 88.4929C227.859 88.4929 227.569 88.5433 227.328 88.6947C227.086 88.8461 226.893 89.0479 226.748 89.3001C226.603 89.5524 226.555 89.8551 226.555 90.2587V90.4605C226.555 90.8137 226.651 91.1164 226.796 91.4191C226.941 91.6714 227.183 91.9236 227.473 92.075C227.762 92.2263 228.101 92.2768 228.439 92.2768C228.777 92.2768 229.067 92.2264 229.309 92.1255C229.55 92.0246 229.792 91.8732 229.985 91.6209L230.71 92.4786C230.468 92.7813 230.13 93.0336 229.743 93.1849C229.357 93.3363 228.922 93.4372 228.39 93.4372Z" fill="#FFD400"/>
<path d="M114.218 128.451H112.817V120.581H114.218V128.451ZM118.228 125.071H114.121V123.81H118.228V125.071ZM118.083 120.631H119.484V128.502H118.083V120.631Z" fill="#FFD400"/>
<path d="M124.514 128.551C123.886 128.551 123.306 128.4 122.823 128.148C122.34 127.896 122.001 127.542 121.712 127.038C121.47 126.584 121.325 126.029 121.325 125.474C121.325 124.868 121.47 124.364 121.712 123.91C121.953 123.456 122.34 123.103 122.774 122.85C123.209 122.598 123.741 122.447 124.321 122.447C124.9 122.447 125.384 122.598 125.818 122.85C126.253 123.103 126.591 123.456 126.833 123.91C127.075 124.364 127.219 124.919 127.219 125.524C127.219 125.575 127.219 125.676 127.219 125.726C127.219 125.777 127.219 125.878 127.219 125.928H122.436V125.02H126.495L125.963 125.323C125.963 124.969 125.915 124.667 125.77 124.414C125.625 124.162 125.432 123.96 125.19 123.809C124.949 123.658 124.659 123.607 124.321 123.607C123.982 123.607 123.692 123.658 123.451 123.809C123.209 123.96 123.016 124.162 122.871 124.414C122.726 124.667 122.678 124.969 122.678 125.373V125.575C122.678 125.928 122.774 126.231 122.919 126.533C123.064 126.786 123.306 127.038 123.596 127.189C123.886 127.341 124.224 127.391 124.562 127.391C124.9 127.391 125.19 127.341 125.432 127.24C125.673 127.139 125.915 126.987 126.108 126.735L126.833 127.593C126.591 127.896 126.253 128.148 125.867 128.299C125.48 128.451 124.997 128.551 124.514 128.551Z" fill="#FFD400"/>
<path d="M128.912 128.451V120.127H130.264V128.451H128.912Z" fill="#FFD400"/>
<path d="M132.435 130.62V122.447H133.691V123.86L133.643 125.474L133.74 127.089V130.671H132.435V130.62ZM135.624 128.552C135.141 128.552 134.754 128.451 134.368 128.198C133.981 127.997 133.691 127.643 133.45 127.189C133.208 126.735 133.111 126.18 133.111 125.474C133.111 124.768 133.208 124.213 133.45 123.759C133.691 123.305 133.981 122.951 134.368 122.75C134.754 122.548 135.189 122.396 135.672 122.396C136.252 122.396 136.735 122.548 137.17 122.8C137.605 123.052 137.943 123.406 138.185 123.86C138.426 124.314 138.571 124.869 138.571 125.474C138.571 126.079 138.426 126.634 138.185 127.089C137.943 127.543 137.605 127.896 137.17 128.148C136.687 128.4 136.204 128.552 135.624 128.552ZM135.479 127.341C135.817 127.341 136.107 127.29 136.349 127.139C136.59 126.988 136.783 126.786 136.977 126.483C137.122 126.18 137.218 125.878 137.218 125.474C137.218 125.07 137.122 124.768 136.977 124.465C136.832 124.162 136.639 123.96 136.349 123.809C136.107 123.658 135.817 123.607 135.479 123.607C135.141 123.607 134.851 123.658 134.609 123.809C134.368 123.96 134.126 124.162 133.981 124.465C133.836 124.768 133.74 125.07 133.74 125.474C133.74 125.878 133.836 126.18 133.981 126.483C134.126 126.786 134.319 126.988 134.609 127.139C134.851 127.24 135.141 127.341 135.479 127.341Z" fill="#FFD400"/>
</svg>
