<svg width="61" height="60" viewBox="0 0 61 60" fill="none" xmlns="http://www.w3.org/2000/svg">
<path d="M49.2498 31.43L30.4998 50L11.7498 31.43C10.513 30.2265 9.53888 28.7801 8.88865 27.1816C8.23841 25.5832 7.92618 23.8674 7.97162 22.1423C8.01706 20.4173 8.41918 18.7204 9.15267 17.1584C9.88616 15.5964 10.9351 14.2032 12.2335 13.0665C13.5319 11.9298 15.0515 11.0742 16.6968 10.5537C18.3421 10.0332 20.0773 9.85897 21.7932 10.042C23.5091 10.2251 25.1685 10.7614 26.667 11.6173C28.1654 12.4732 29.4704 13.63 30.4998 15.015C31.5336 13.6401 32.8401 12.4933 34.3375 11.6465C35.8349 10.7997 37.491 10.2711 39.2021 10.0938C40.9132 9.91649 42.6425 10.0943 44.2817 10.616C45.9209 11.1377 47.4348 11.9922 48.7287 13.1259C50.0225 14.2596 51.0683 15.6482 51.8008 17.2047C52.5333 18.7613 52.9366 20.4522 52.9855 22.1718C53.0345 23.8913 52.7279 25.6025 52.0851 27.1981C51.4423 28.7938 50.477 30.2396 49.2498 31.445" stroke="#FDE047" stroke-width="3" stroke-linecap="round" stroke-linejoin="round"/>
<path d="M30.4996 15L22.2671 23.2325C21.7984 23.7013 21.5352 24.3371 21.5352 25C21.5352 25.6629 21.7984 26.2987 22.2671 26.7675L23.6246 28.125C25.3496 29.85 28.1496 29.85 29.8746 28.125L32.3746 25.625C33.113 24.8857 33.9898 24.2992 34.955 23.8991C35.9202 23.499 36.9548 23.293 37.9996 23.293C39.0445 23.293 40.0791 23.499 41.0442 23.8991C42.0094 24.2992 42.8863 24.8857 43.6246 25.625L49.2496 31.25M31.7496 38.75L36.7496 43.75M37.9996 32.5L42.9996 37.5" stroke="#FDE047" stroke-width="3" stroke-linecap="round" stroke-linejoin="round"/>
</svg>
