<svg width="25" height="24" viewBox="0 0 25 24" fill="none" xmlns="http://www.w3.org/2000/svg">
<path d="M12.25 3.00002C10.3935 3.00002 8.61301 3.73752 7.30025 5.05028C5.9875 6.36303 5.25 8.14351 5.25 10C5.25 12.862 7.032 15.623 8.988 17.762C9.98814 18.8517 11.0794 19.854 12.25 20.758C12.4247 20.624 12.6297 20.4607 12.865 20.268C13.8048 19.4963 14.6893 18.6596 15.512 17.764C17.468 15.623 19.25 12.863 19.25 10C19.25 8.14351 18.5125 6.36303 17.1997 5.05028C15.887 3.73752 14.1065 3.00002 12.25 3.00002ZM12.25 23.214L11.683 22.824L11.68 22.822L11.674 22.817L11.654 22.803L11.579 22.75L11.309 22.553C9.94086 21.5248 8.66988 20.3733 7.512 19.113C5.468 16.875 3.25 13.636 3.25 9.99902C3.25 7.61207 4.19821 5.32289 5.88604 3.63506C7.57387 1.94724 9.86305 0.999023 12.25 0.999023C14.6369 0.999023 16.9261 1.94724 18.614 3.63506C20.3018 5.32289 21.25 7.61207 21.25 9.99902C21.25 13.636 19.032 16.876 16.988 19.111C15.8304 20.3713 14.5598 21.5228 13.192 22.551C13.0781 22.6361 12.963 22.7198 12.847 22.802L12.826 22.816L12.82 22.821L12.818 22.822L12.25 23.214ZM12.25 8.00002C11.7196 8.00002 11.2109 8.21074 10.8358 8.58581C10.4607 8.96088 10.25 9.46959 10.25 10C10.25 10.5305 10.4607 11.0392 10.8358 11.4142C11.2109 11.7893 11.7196 12 12.25 12C12.7804 12 13.2891 11.7893 13.6642 11.4142C14.0393 11.0392 14.25 10.5305 14.25 10C14.25 9.46959 14.0393 8.96088 13.6642 8.58581C13.2891 8.21074 12.7804 8.00002 12.25 8.00002ZM8.25 10C8.25 8.93916 8.67143 7.92174 9.42157 7.1716C10.1717 6.42145 11.1891 6.00002 12.25 6.00002C13.3109 6.00002 14.3283 6.42145 15.0784 7.1716C15.8286 7.92174 16.25 8.93916 16.25 10C16.25 11.0609 15.8286 12.0783 15.0784 12.8285C14.3283 13.5786 13.3109 14 12.25 14C11.1891 14 10.1717 13.5786 9.42157 12.8285C8.67143 12.0783 8.25 11.0609 8.25 10Z" fill="#333C4A"/>
</svg>
