<svg width="25" height="24" viewBox="0 0 25 24" fill="none" xmlns="http://www.w3.org/2000/svg">
<path d="M22.5147 2.42973C22.23 2.19287 21.8864 2.03763 21.5204 1.98054C21.1545 1.92345 20.7799 1.96664 20.4366 2.10552L2.51566 9.34087C2.13241 9.49856 1.80618 9.76906 1.58026 10.1165C1.35434 10.4639 1.23943 10.8718 1.25076 11.2861C1.2621 11.7004 1.39916 12.1014 1.64374 12.4359C1.88832 12.7705 2.22886 13.0227 2.62016 13.1592L6.24516 14.42L8.26566 21.1016C8.29312 21.1909 8.33297 21.2758 8.38404 21.354C8.39179 21.366 8.40272 21.3749 8.41096 21.3866C8.46996 21.4689 8.54127 21.5417 8.62239 21.6024C8.64546 21.6199 8.66755 21.6364 8.69221 21.652C8.78714 21.715 8.89228 21.7611 9.00294 21.7881L9.01478 21.7891L9.02149 21.792C9.08802 21.8055 9.15574 21.8124 9.22364 21.8125C9.23017 21.8125 9.23597 21.8094 9.24244 21.8093C9.3449 21.8075 9.44647 21.7898 9.54353 21.757C9.56611 21.7493 9.58546 21.7364 9.60737 21.7271C9.67975 21.6971 9.74832 21.6587 9.81166 21.6126C9.86238 21.5698 9.91312 21.5271 9.96388 21.4844L12.666 18.501L16.6963 21.6231C17.0511 21.8993 17.4879 22.0495 17.9375 22.0498C18.4087 22.0492 18.8654 21.8867 19.2309 21.5894C19.5965 21.2921 19.8487 20.8782 19.9454 20.417L23.208 4.40044C23.282 4.03996 23.2565 3.66616 23.1344 3.31903C23.0123 2.9719 22.7981 2.66451 22.5147 2.42973ZM9.62016 14.7383C9.4815 14.8764 9.38672 15.0524 9.3477 15.2442L9.03819 16.7482L8.25413 14.1551L12.3194 12.0382L9.62016 14.7383ZM17.9219 20.042L13.1592 16.3526C12.96 16.1986 12.71 16.1253 12.4592 16.1474C12.2083 16.1695 11.975 16.2853 11.8057 16.4717L10.9403 17.4269L11.2461 15.9404L18.3291 8.85744C18.4982 8.6886 18.6012 8.4648 18.6195 8.22657C18.6378 7.98833 18.5701 7.75143 18.4288 7.55876C18.2875 7.36609 18.0819 7.23041 17.8492 7.17628C17.6164 7.12215 17.372 7.15316 17.1602 7.26369L6.99491 12.5563L3.27055 11.1934L21.249 4.001L17.9219 20.042Z" fill="#333C4A"/>
</svg>
