<svg width="25" height="24" viewBox="0 0 25 24" fill="none" xmlns="http://www.w3.org/2000/svg">
<path d="M23.4914 3.95216C23.4915 3.77553 23.4448 3.60202 23.3561 3.4493C23.2673 3.29659 23.1397 3.17013 22.9862 3.08279C22.8326 2.99545 22.6587 2.95037 22.4821 2.95212C22.3054 2.95388 22.1324 3.00241 21.9807 3.09278C21.3954 3.44116 20.7652 3.70796 20.1077 3.88578C19.1686 3.08001 17.971 2.63908 16.7337 2.64359C15.3762 2.64515 14.0726 3.17418 13.0979 4.11897C12.1232 5.06376 11.5539 6.35035 11.51 7.70707C8.83402 7.28033 6.40868 5.88359 4.69649 3.78321C4.59333 3.65804 4.46158 3.55952 4.31235 3.49596C4.16313 3.43239 4.0008 3.40564 3.83907 3.41796C3.67743 3.43127 3.52147 3.48375 3.38467 3.57087C3.24786 3.65799 3.13434 3.77712 3.05391 3.91796C2.64144 4.63777 2.40454 5.44472 2.36246 6.27327C2.32038 7.10182 2.4743 7.92861 2.81172 8.68651L2.80977 8.68846C2.65812 8.78186 2.53296 8.91261 2.44628 9.06821C2.35959 9.2238 2.31427 9.39903 2.31465 9.57714C2.31282 9.72407 2.32163 9.87093 2.34102 10.0166C2.44316 11.2749 3.00081 12.4526 3.90938 13.3291C3.84775 13.4465 3.81013 13.575 3.79873 13.7072C3.78732 13.8393 3.80237 13.9724 3.84297 14.0986C4.23909 15.3328 5.08147 16.3747 6.20528 17.0205C5.06352 17.462 3.8307 17.6159 2.61543 17.4687C2.39051 17.4405 2.16266 17.4896 1.96928 17.6079C1.7759 17.7262 1.62846 17.9067 1.55115 18.1198C1.47384 18.3329 1.47124 18.5659 1.54379 18.7807C1.61634 18.9954 1.75973 19.1792 1.95043 19.3017C4.04053 20.6479 6.47411 21.3636 8.9602 21.3633C11.7795 21.395 14.5302 20.4941 16.7844 18.8007C19.0387 17.1074 20.6702 14.7165 21.425 12C21.7781 10.8166 21.9583 9.58843 21.9602 8.35352C21.9602 8.28809 21.9602 8.22071 21.9592 8.15333C22.4813 7.59026 22.8858 6.92863 23.1489 6.20723C23.412 5.48582 23.5284 4.71915 23.4914 3.95216ZM20.1848 7.16407C20.0196 7.35941 19.936 7.61087 19.9514 7.86622C19.9611 8.03122 19.9602 8.19722 19.9602 8.35352C19.9581 9.39706 19.8052 10.4348 19.5061 11.4346C18.8896 13.746 17.5152 15.7836 15.6031 17.2212C13.6911 18.6587 11.3519 19.413 8.9602 19.3633C8.10108 19.3636 7.24492 19.2626 6.40942 19.0625C7.47483 18.7192 8.47101 18.1898 9.3518 17.499C9.51403 17.3713 9.63275 17.1965 9.69169 16.9986C9.75063 16.8007 9.74688 16.5895 9.68098 16.3938C9.61507 16.1981 9.49023 16.0276 9.32358 15.9057C9.15694 15.7838 8.95665 15.7165 8.7502 15.7129C7.91903 15.7 7.12533 15.3649 6.53633 14.7783C6.68575 14.75 6.83419 14.7149 6.98165 14.6729C7.19766 14.6114 7.3867 14.479 7.51831 14.297C7.64993 14.115 7.71647 13.894 7.70723 13.6696C7.69798 13.4452 7.61348 13.2305 7.46734 13.0599C7.32119 12.8894 7.12191 12.773 6.90157 12.7295C6.41911 12.6342 5.96512 12.429 5.57489 12.1297C5.18466 11.8304 4.8687 11.4452 4.65157 11.0039C4.8323 11.0286 5.01418 11.0439 5.19649 11.0498C5.41308 11.0531 5.62509 10.9874 5.80187 10.8622C5.97865 10.737 6.11104 10.5589 6.17989 10.3535C6.24587 10.1463 6.24248 9.92318 6.17022 9.71805C6.09797 9.51292 5.96079 9.33694 5.7795 9.2168C5.33965 8.92377 4.97935 8.52622 4.73086 8.05976C4.48237 7.59329 4.35346 7.07248 4.35567 6.54396C4.35567 6.47756 4.35762 6.41115 4.36153 6.34572C6.60279 8.43597 9.50985 9.66817 12.5705 9.82521C12.725 9.8313 12.8789 9.8022 13.0205 9.74011C13.1621 9.67802 13.2877 9.58457 13.3879 9.46681C13.4871 9.34791 13.5573 9.20762 13.5931 9.05697C13.6288 8.90632 13.6291 8.74943 13.5939 8.59865C13.5367 8.36001 13.5076 8.11552 13.507 7.87013C13.5079 7.01466 13.8482 6.1945 14.4531 5.58959C15.058 4.98469 15.8781 4.64446 16.7336 4.64356C17.1737 4.64238 17.6093 4.73246 18.0129 4.90811C18.4165 5.08375 18.7792 5.34116 19.0783 5.66407C19.1937 5.78815 19.3388 5.88066 19.5 5.9328C19.6612 5.98495 19.833 5.99498 19.9992 5.96196C20.41 5.88202 20.8149 5.77435 21.2111 5.6397C20.9409 6.19267 20.5955 6.70565 20.1848 7.16407Z" fill="#333C4A"/>
</svg>
