<svg width="12" height="20" viewBox="0 0 12 20" fill="none" xmlns="http://www.w3.org/2000/svg">
<path d="M3.4999 10.0079L10.8499 17.3579C11.0999 17.6079 11.2209 17.8996 11.2129 18.2329C11.2049 18.5662 11.0756 18.8579 10.8249 19.1079C10.5742 19.3579 10.2826 19.4829 9.9499 19.4829C9.61724 19.4829 9.32557 19.3579 9.0749 19.1079L1.3749 11.4329C1.1749 11.2329 1.0249 11.0079 0.924902 10.7579C0.824902 10.5079 0.774902 10.2579 0.774902 10.0079C0.774902 9.7579 0.824902 9.5079 0.924902 9.2579C1.0249 9.0079 1.1749 8.7829 1.3749 8.5829L9.0749 0.882903C9.3249 0.632903 9.6209 0.511903 9.9629 0.519903C10.3049 0.527903 10.6006 0.657237 10.8499 0.907903C11.0992 1.15857 11.2242 1.45024 11.2249 1.7829C11.2256 2.11557 11.1006 2.40724 10.8499 2.6579L3.4999 10.0079Z" fill="#CA8B06"/>
</svg>
