<svg width="20" height="21" viewBox="0 0 20 21" fill="none" xmlns="http://www.w3.org/2000/svg">
<path fill-rule="evenodd" clip-rule="evenodd" d="M9.38504 18.9453C9.38504 18.9453 3.33337 13.8487 3.33337 8.83366C3.33337 7.06555 4.03575 5.36986 5.286 4.11961C6.53624 2.86937 8.23193 2.16699 10 2.16699C11.7682 2.16699 13.4638 2.86937 14.7141 4.11961C15.9643 5.36986 16.6667 7.06555 16.6667 8.83366C16.6667 13.8487 10.615 18.9453 10.615 18.9453C10.2784 19.2553 9.72421 19.252 9.38504 18.9453ZM10 11.7503C10.3831 11.7503 10.7623 11.6749 11.1162 11.5283C11.4701 11.3817 11.7916 11.1669 12.0624 10.8961C12.3333 10.6252 12.5481 10.3037 12.6947 9.94982C12.8413 9.59595 12.9167 9.21668 12.9167 8.83366C12.9167 8.45064 12.8413 8.07136 12.6947 7.7175C12.5481 7.36363 12.3333 7.0421 12.0624 6.77126C11.7916 6.50043 11.4701 6.28559 11.1162 6.13901C10.7623 5.99243 10.3831 5.91699 10 5.91699C9.22649 5.91699 8.48463 6.22428 7.93765 6.77126C7.39067 7.31824 7.08337 8.06011 7.08337 8.83366C7.08337 9.60721 7.39067 10.3491 7.93765 10.8961C8.48463 11.443 9.22649 11.7503 10 11.7503Z" fill="#495664"/>
</svg>
