<svg width="61" height="60" viewBox="0 0 61 60" fill="none" xmlns="http://www.w3.org/2000/svg">
<path fill-rule="evenodd" clip-rule="evenodd" d="M28.655 55.335C28.655 55.335 10.5 40.045 10.5 25C10.5 19.6957 12.6071 14.6086 16.3579 10.8579C20.1086 7.10714 25.1957 5 30.5 5C35.8043 5 40.8914 7.10714 44.6421 10.8579C48.3929 14.6086 50.5 19.6957 50.5 25C50.5 40.045 32.345 55.335 32.345 55.335C31.335 56.265 29.6725 56.255 28.655 55.335ZM30.5 33.75C31.6491 33.75 32.7869 33.5237 33.8485 33.0839C34.9101 32.6442 35.8747 31.9997 36.6872 31.1872C37.4997 30.3747 38.1442 29.4101 38.5839 28.3485C39.0237 27.2869 39.25 26.1491 39.25 25C39.25 23.8509 39.0237 22.7131 38.5839 21.6515C38.1442 20.5899 37.4997 19.6253 36.6872 18.8128C35.8747 18.0003 34.9101 17.3558 33.8485 16.9161C32.7869 16.4763 31.6491 16.25 30.5 16.25C28.1794 16.25 25.9538 17.1719 24.3128 18.8128C22.6719 20.4538 21.75 22.6794 21.75 25C21.75 27.3206 22.6719 29.5462 24.3128 31.1872C25.9538 32.8281 28.1794 33.75 30.5 33.75Z" fill="#FDE047"/>
</svg>
