<svg width="25" height="24" viewBox="0 0 25 24" fill="none" xmlns="http://www.w3.org/2000/svg">
<path d="M17.35 14.0016C17.15 13.9016 15.85 13.3016 15.65 13.2016C15.45 13.1016 15.25 13.1016 15.05 13.3016C14.85 13.5016 14.45 14.1016 14.25 14.3016C14.15 14.5016 13.95 14.5016 13.75 14.4016C13.05 14.1016 12.35 13.7016 11.75 13.2016C11.25 12.7016 10.75 12.1016 10.35 11.5016C10.25 11.3016 10.35 11.1016 10.45 11.0016C10.55 10.9016 10.65 10.7016 10.85 10.6016C10.95 10.5016 11.05 10.3016 11.05 10.2016C11.15 10.1016 11.15 9.90156 11.05 9.80156C10.95 9.70156 10.45 8.50156 10.25 8.00156C10.15 7.30156 9.95 7.30156 9.75 7.30156C9.65 7.30156 9.45 7.30156 9.25 7.30156C9.05 7.30156 8.75 7.50156 8.65 7.60156C8.05 8.20156 7.75 8.90156 7.75 9.70156C7.85 10.6016 8.15 11.5016 8.75 12.3016C9.85 13.9016 11.25 15.2016 12.95 16.0016C13.45 16.2016 13.85 16.4016 14.35 16.5016C14.85 16.7016 15.35 16.7016 15.95 16.6016C16.65 16.5016 17.25 16.0016 17.65 15.4016C17.85 15.0016 17.85 14.6016 17.75 14.2016C17.75 14.2016 17.55 14.1016 17.35 14.0016ZM19.85 4.90156C15.95 1.00156 9.65 1.00156 5.75 4.90156C2.55 8.10156 1.95 13.0016 4.15 16.9016L2.75 22.0016L8.05 20.6016C9.55 21.4016 11.15 21.8016 12.75 21.8016C18.25 21.8016 22.65 17.4016 22.65 11.9016C22.75 9.30156 21.65 6.80156 19.85 4.90156ZM17.15 18.9016C15.85 19.7016 14.35 20.2016 12.75 20.2016C11.25 20.2016 9.85 19.8016 8.55 19.1016L8.25 18.9016L5.15 19.7016L5.95 16.7016L5.75 16.4016C3.35 12.4016 4.55 7.40156 8.45 4.90156C12.35 2.40156 17.35 3.70156 19.75 7.50156C22.15 11.4016 21.05 16.5016 17.15 18.9016Z" fill="#333C4A"/>
</svg>
